<?xml version="1.0" encoding="utf-8"?>
<!-- Generator: Adobe Illustrator 24.0.1, SVG Export Plug-In . SVG Version: 6.00 Build 0)  -->
<svg version="1.1" id="Capa_1" xmlns="http://www.w3.org/2000/svg" xmlns:xlink="http://www.w3.org/1999/xlink" x="0px" y="0px"
	 viewBox="0 0 50 50" style="enable-background:new 0 0 50 50;" xml:space="preserve">
<style type="text/css">
	.st0{fill:#EF5030;}
	.st1{fill:#FFFFFF;}
</style>
<title>preloader-primeros-auxilios-perros-ico</title>
<path class="st0" d="M49.4,15.2c-0.7-5.5-4.3-11-9.8-12.3c-1.1-0.3-2.3-0.5-3.4-0.5c-3.2,0-6.3,1.3-8.7,3.6c-1.1,1-2,2.1-2.7,3.4
	l0,0C24,8.2,23.1,7,22,6.1c-2.5-2.3-5.5-3.5-8.7-3.6c-1.2,0-2.3,0.2-3.4,0.5C4.4,4.2,1.3,9.7,0.6,15.2C0.1,19.5,1.7,25.1,7.1,31
	c5.4,5.8,11,11.3,17,16.3l1.1,1l0.6-0.4c6-4.9,11.6-10.1,17-15.8C48.3,26.2,49.9,19.5,49.4,15.2z"/>
<path class="st1" d="M31.8,31c-0.1,1.7-1.5,3-3.2,3c-0.1,0-0.3,0-0.4,0c-0.6-0.1-1.3-0.3-1.9-0.5c-1-0.3-2.1-0.3-3.1,0
	c-0.5,0.2-1,0.3-1.5,0.4c-1.1,0.4-2.3,0.1-3.1-0.8c-0.8-0.9-1-2.2-0.5-3.2c0.3-0.7,0.7-1.3,1.2-1.8c0.8-1,1.7-2,2.5-3
	c0.3-0.4,0.6-0.7,0.9-1c1.1-1.1,2.9-1.2,4-0.1c0,0,0,0,0.1,0.1c1.4,1.6,2.8,3.3,4.1,5.1C31.4,29.6,31.6,30.3,31.8,31z"/>
<path class="st1" d="M30.5,18.9c0,1.1-0.4,2.2-1.2,2.9c-0.7,0.9-1.9,1.1-2.8,0.4c-0.4-0.3-0.7-0.8-0.8-1.4c-0.4-1.3-0.1-2.6,0.7-3.7
	c0.5-0.8,1.5-1.2,2.5-1c0.9,0.4,1.5,1.2,1.6,2.2C30.5,18.5,30.5,18.7,30.5,18.9z"/>
<path class="st1" d="M19.3,18.7c0.1-0.5,0.2-0.9,0.4-1.3c0.4-1,1.5-1.5,2.5-1.2c0.3,0.1,0.5,0.3,0.7,0.5c1.3,1.2,1.6,3.2,0.8,4.7
	c-0.5,0.9-1.6,1.3-2.6,0.8c-0.1-0.1-0.2-0.1-0.4-0.2C19.8,21.2,19.2,20,19.3,18.7z"/>
<path class="st1" d="M34.8,23.3c0,1.3-0.8,2.5-2,3c-0.9,0.5-2,0.2-2.5-0.7c-0.1-0.2-0.2-0.4-0.2-0.6c-0.3-1.6,0.6-3.2,2.2-3.8
	C33.6,20.6,34.8,21.6,34.8,23.3z"/>
<path class="st1" d="M15.2,23.1c0-0.3,0.1-0.6,0.2-0.9c0.3-0.9,1.3-1.5,2.3-1.1c0.1,0,0.3,0.1,0.4,0.2c1.3,0.8,2,2.3,1.6,3.8
	c-0.2,1-1.2,1.6-2.2,1.4c-0.3-0.1-0.5-0.2-0.7-0.3C15.8,25.4,15.2,24.3,15.2,23.1z"/>
</svg>
