<?xml version="1.0" encoding="utf-8"?>
<!-- Generator: Adobe Illustrator 24.0.1, SVG Export Plug-In . SVG Version: 6.00 Build 0)  -->
<svg version="1.1" id="Capa_1" xmlns="http://www.w3.org/2000/svg" xmlns:xlink="http://www.w3.org/1999/xlink" x="0px" y="0px"
	 viewBox="0 0 190 189.2" style="enable-background:new 0 0 190 189.2;" xml:space="preserve">
<style type="text/css">
	.st0{fill:#F95741;}
	.st1{fill:#7F6662;}
	.st2{fill:#FFFFFF;}
</style>
<g>
	<g>
		<path class="st0" d="M184,139.7c0,19.6-16,35.6-35.6,35.6H42.6C23,175.3,7,159.3,7,139.7V84.5c0-19.6,16-35.6,35.6-35.6h105.9
			c19.6,0,35.6,16,35.6,35.6V139.7z"/>
		<g>
			<path class="st1" d="M63.8,55.6c0.3-17.6,14.2-31.4,31.7-31.7c17.6-0.3,31.4,14.7,31.7,31.7c0.1,6.6,10.4,6.6,10.2,0
				c-0.4-23.2-18.8-41.5-42-42c-23.2-0.4-41.6,19.5-42,42C53.4,62.2,63.6,62.2,63.8,55.6L63.8,55.6z"/>
		</g>
		<g>
			<g>
				<polygon class="st2" points="135.8,92.8 114.8,92.8 114.8,71.8 76.2,71.8 76.2,92.8 55.2,92.8 55.2,131.4 76.2,131.4 
					76.2,152.4 114.8,152.4 114.8,131.4 135.8,131.4 				"/>
			</g>
			<g>
				<path class="st0" d="M108.7,118.7c0,3.8-3.9,6.9-8.6,6.9h-9.2c-4.7,0-8.6-3.1-8.6-6.9c0-3.8,3.9-6.9,8.6-6.9h9.2
					C104.8,111.8,108.7,114.9,108.7,118.7z"/>
				<g>
					<g>
						<path class="st0" d="M94.8,103.1c0,3.1-2.1,5.7-4.8,5.7c-2.6,0-4.8-2.5-4.8-5.7c0-3.1,2.1-5.7,4.8-5.7
							C92.7,97.4,94.8,100,94.8,103.1z"/>
						<path class="st0" d="M85,108.8c0,2.6-1.8,4.7-4,4.7c-2.2,0-4-2.1-4-4.7c0-2.6,1.8-4.7,4-4.7C83.2,104,85,106.2,85,108.8z"/>
					</g>
					<g>
						<path class="st0" d="M96.2,103.1c0,3.1,2.1,5.7,4.8,5.7c2.6,0,4.8-2.5,4.8-5.7c0-3.1-2.1-5.7-4.8-5.7
							C98.3,97.4,96.2,100,96.2,103.1z"/>
						<path class="st0" d="M106,108.8c0,2.6,1.8,4.7,4,4.7s4-2.1,4-4.7c0-2.6-1.8-4.7-4-4.7S106,106.2,106,108.8z"/>
					</g>
				</g>
			</g>
		</g>
	</g>
</g>
</svg>
