<?xml version="1.0" encoding="utf-8"?>
<!-- Generator: Adobe Illustrator 25.2.0, SVG Export Plug-In . SVG Version: 6.00 Build 0)  -->
<svg version="1.1" id="Layer_1" xmlns="http://www.w3.org/2000/svg" xmlns:xlink="http://www.w3.org/1999/xlink" x="0px" y="0px"
	 viewBox="0 0 495 495" style="enable-background:new 0 0 495 495;" xml:space="preserve">
<style type="text/css">
	.st0{fill:#8A6D3B;}
</style>
<g>
	<path class="st0" d="M430.2,66.2c0-16.9-6.6-32.7-18.5-44.7C399.8,9.6,384,3,367.1,3c-34.8,0-63.2,28.3-63.2,63.2l0,28.6
		L94.8,303.9l-28.6,0c-16.9,0-32.7,6.6-44.7,18.5C9.6,334.4,3,350.2,3,367.1s6.6,32.7,18.5,44.7c11.9,11.9,27.8,18.5,44.7,18.5h4.6
		L430.2,70.8V66.2z"/>
	<path class="st0" d="M474.5,84.3c-11.9-11.9-27.8-18.5-44.7-18.5h-4.6L65.8,425.2v4.6c0,16.9,6.6,32.7,18.5,44.7
		C96.2,486.4,112,493,128.9,493c16.9,0,32.7-6.6,44.7-18.5c11.9-11.9,18.5-27.8,18.5-44.7l0-28.6l209.1-209.1l28.6,0
		c34.8,0,63.2-28.3,63.2-63.2C493,112,486.4,96.2,474.5,84.3z"/>
</g>
</svg>
