<?xml version="1.0" encoding="utf-8"?>
<!-- Generator: Adobe Illustrator 24.0.1, SVG Export Plug-In . SVG Version: 6.00 Build 0)  -->
<svg version="1.1" id="Capa_1" xmlns="http://www.w3.org/2000/svg" xmlns:xlink="http://www.w3.org/1999/xlink" x="0px" y="0px"
	 viewBox="0 0 190 189.2" style="enable-background:new 0 0 190 189.2;" xml:space="preserve">
<style type="text/css">
	.st0{fill:#7EB341;}
	.st1{fill:#518D23;}
	.st2{fill:#FE5723;}
	.st3{clip-path:url(#SVGID_2_);}
	.st4{fill:#FE7243;}
	.st5{opacity:0.2;}
	.st6{fill:#FFFFFF;}
	.st7{opacity:0.1;}
	.st8{fill:#FFAB91;}
	.st9{fill:#D82F27;}
	.st10{fill:#E83627;}
	.st11{fill:#F1663B;}
	.st12{fill:#78B639;}
	.st13{fill:#549606;}
</style>
<g>
	<g>
		<g>
			<g>
				<g>
					
						<rect x="126.5" y="29.3" transform="matrix(0.2867 -0.958 0.958 0.2867 71.2723 160.5194)" class="st0" width="33.9" height="6.2"/>
				</g>
				<g>
					
						<rect x="124.6" y="30.7" transform="matrix(0.2867 -0.958 0.958 0.2867 70.4864 158.3653)" class="st1" width="33.9" height="2.3"/>
				</g>
			</g>
			<g>
				<g>
					
						<rect x="133.2" y="13.1" transform="matrix(1 -4.696738e-03 4.696738e-03 1 -0.1399 0.6402)" class="st0" width="6.2" height="33.9"/>
				</g>
				<g>
					
						<rect x="137" y="13.1" transform="matrix(1 -4.708785e-03 4.708785e-03 1 -0.1402 0.6509)" class="st1" width="2.3" height="33.9"/>
				</g>
			</g>
			<g>
				<g>
					
						<rect x="135" y="37.7" transform="matrix(0.7815 -0.6239 0.6239 0.7815 7.7881 104.6919)" class="st0" width="36.8" height="7.1"/>
				</g>
				<g>
					
						<rect x="133.6" y="38.1" transform="matrix(0.7816 -0.6238 0.6238 0.7816 8.5614 103.4402)" class="st1" width="36.8" height="2.7"/>
				</g>
			</g>
			<g>
				<g>
					
						<rect x="130.5" y="29.6" transform="matrix(0.4929 -0.8701 0.8701 0.4929 47.9539 147.6465)" class="st0" width="40.3" height="6.3"/>
				</g>
				<g>
					
						<rect x="132.2" y="32.5" transform="matrix(0.4928 -0.8701 0.8701 0.4928 47.9814 149.6066)" class="st1" width="40.3" height="2.4"/>
				</g>
			</g>
			<g>
				<path class="st2" d="M151.9,53c-10.2-7.4-10.9-7.4-10.9-7.4l-0.2-0.2c-1.5-0.7-4.8-2.1-11.8-4.8c-17.3-6.7-26.3,30.9-49.4,88.4
					c-12.5,31-16.2,45.1-17,51.5l0,0c1.3,4.7,21.1-12.1,41.3-38.7C141.5,92.3,166.9,63.9,151.9,53z"/>
			</g>
			<g>
				<defs>
					<path id="SVGID_1_" d="M151.3,53.9c-10.2-7.4-10.9-7.4-10.9-7.4l-0.2-0.2c-1.5-0.7-4.8-2.1-11.8-4.8
						c-17.3-6.7-26.3,30.9-49.4,88.4c-12.5,31-16.2,45.1-17,51.5l0,0c1.3,4.7,21.1-12.1,41.3-38.7C140.8,93.2,166.3,64.8,151.3,53.9
						z"/>
				</defs>
				<clipPath id="SVGID_2_">
					<use xlink:href="#SVGID_1_"  style="overflow:visible;"/>
				</clipPath>
				<g class="st3">
					<path class="st4" d="M123,101.9c-22.2,34.7-48.9,57.3-59.6,50.4c-10.7-6.8-1.4-40.5,20.8-75.2c22.2-34.7,48.9-57.3,59.6-50.4
						C154.5,33.5,145.2,67.2,123,101.9z"/>
				</g>
			</g>
			<g>
				<g class="st5">
					<path class="st6" d="M141.7,59.6c0.7,0.5,1.1,1,0.9,1.3l0,0c-0.2,0.2-0.9,0.1-1.5-0.4l-6-4c-0.7-0.5-1.1-1-0.9-1.3l0,0
						c0.2-0.2,0.9-0.1,1.5,0.4L141.7,59.6z"/>
				</g>
				<g class="st7">
					<path class="st6" d="M125.8,58.7c0.7,0.5,1.1,1,0.9,1.3l0,0c-0.2,0.2-0.9,0.1-1.5-0.4l-6-4c-0.7-0.5-1.1-1-0.9-1.3l0,0
						c0.2-0.2,0.9-0.1,1.5,0.4L125.8,58.7z"/>
				</g>
				<g class="st5">
					<path class="st6" d="M132.3,69.5c0.7,0.5,1.1,1,0.9,1.3l0,0c-0.2,0.2-0.9,0.1-1.5-0.4l-6-4c-0.7-0.5-1.1-1-0.9-1.3l0,0
						c0.2-0.2,0.9-0.1,1.5,0.4L132.3,69.5z"/>
				</g>
				<g class="st7">
					<path class="st6" d="M117.2,66.4c0.7,0.5,1.1,1,0.9,1.3l0,0c-0.2,0.2-0.9,0.1-1.5-0.4l-6-4c-0.7-0.5-1.1-1-0.9-1.3l0,0
						c0.2-0.2,0.9-0.1,1.5,0.4L117.2,66.4z"/>
				</g>
				<g class="st7">
					<path class="st6" d="M145,71.6c0.7,0.5,1.1,1,0.9,1.3l0,0c-0.2,0.2-0.9,0.1-1.5-0.4l-6-4c-0.7-0.5-1.1-1-0.9-1.3l0,0
						c0.2-0.2,0.9-0.1,1.5,0.4L145,71.6z"/>
				</g>
				<g class="st7">
					<path class="st6" d="M139.3,82.1c0.7,0.5,1.1,1,0.9,1.3l0,0c-0.2,0.2-0.9,0.1-1.5-0.4l-6-4c-0.7-0.5-1.1-1-0.9-1.3l0,0
						c0.2-0.2,0.9-0.1,1.5,0.4L139.3,82.1z"/>
				</g>
				<g class="st7">
					<path class="st6" d="M123.2,80c0.7,0.5,1.1,1,0.9,1.3l0,0c-0.2,0.2-0.9,0.1-1.5-0.4l-6-4c-0.7-0.5-1.1-1-0.9-1.3l0,0
						c0.2-0.2,0.9-0.1,1.5,0.4L123.2,80z"/>
				</g>
				<g class="st5">
					<path class="st6" d="M111.8,83.1c0.7,0.5,1.1,1,0.9,1.3l0,0c-0.2,0.2-0.9,0.1-1.5-0.4l-6-4c-0.7-0.5-1.1-1-0.9-1.3l0,0
						c0.2-0.2,0.9-0.1,1.5,0.4L111.8,83.1z"/>
				</g>
				<g class="st5">
					<path class="st6" d="M132.4,91.2c0.7,0.5,1.1,1,0.9,1.3l0,0c-0.2,0.2-0.9,0.1-1.5-0.4l-6-4c-0.7-0.5-1.1-1-0.9-1.3l0,0
						c0.2-0.2,0.9-0.1,1.5,0.4L132.4,91.2z"/>
				</g>
				<g class="st7">
					<path class="st6" d="M119.5,94.7c0.7,0.5,1.1,1,0.9,1.3l0,0c-0.2,0.2-0.9,0.1-1.5-0.4l-6-4c-0.7-0.5-1.1-1-0.9-1.3l0,0
						c0.2-0.2,0.9-0.1,1.5,0.4L119.5,94.7z"/>
				</g>
				<g class="st7">
					<path class="st6" d="M104.4,98.9c0.7,0.5,1.1,1,0.9,1.3l0,0c-0.2,0.2-0.9,0.1-1.5-0.4l-6-4c-0.7-0.5-1.1-1-0.9-1.3l0,0
						c0.2-0.2,0.9-0.1,1.5,0.4L104.4,98.9z"/>
				</g>
				<g class="st5">
					<path class="st6" d="M121.3,104.8c0.7,0.5,1.1,1,0.9,1.3l0,0c-0.2,0.2-0.9,0.1-1.5-0.4l-6-4c-0.7-0.5-1.1-1-0.9-1.3l0,0
						c0.2-0.2,0.9-0.1,1.5,0.4L121.3,104.8z"/>
				</g>
				<g class="st7">
					<path class="st6" d="M112.5,111.3c0.7,0.5,1.1,1,0.9,1.3l0,0c-0.2,0.2-0.9,0.1-1.5-0.4l-6-4c-0.7-0.5-1.1-1-0.9-1.3l0,0
						c0.2-0.2,0.9-0.1,1.5,0.4L112.5,111.3z"/>
				</g>
				<g class="st7">
					<path class="st6" d="M110.4,122.6c0.5,0.3,0.8,0.8,0.6,1.1l0,0c-0.2,0.2-0.7,0.2-1.2-0.2l-4.5-3c-0.5-0.3-0.8-0.8-0.6-1.1l0,0
						c0.2-0.2,0.7-0.2,1.2,0.2L110.4,122.6z"/>
				</g>
				<g class="st5">
					<path class="st6" d="M96.2,113c0.7,0.5,1.1,1,0.9,1.3l0,0c-0.2,0.2-0.9,0.1-1.5-0.4l-6-4c-0.7-0.5-1.1-1-0.9-1.3l0,0
						c0.2-0.2,0.9-0.1,1.5,0.4L96.2,113z"/>
				</g>
				<g class="st7">
					<path class="st6" d="M96.5,123.3c0.5,0.3,0.8,0.8,0.6,1.1l0,0c-0.2,0.2-0.7,0.2-1.2-0.2l-4.5-3c-0.5-0.3-0.8-0.8-0.6-1.1l0,0
						c0.2-0.2,0.7-0.2,1.2,0.2L96.5,123.3z"/>
				</g>
				<g class="st5">
					<path class="st6" d="M102.2,134.3c0.5,0.3,0.8,0.8,0.6,1.1l0,0c-0.2,0.2-0.7,0.2-1.2-0.2l-4.5-3c-0.5-0.3-0.8-0.8-0.6-1.1l0,0
						c0.2-0.2,0.7-0.2,1.2,0.2L102.2,134.3z"/>
				</g>
				<g class="st7">
					<path class="st6" d="M89.4,130c0.5,0.3,0.8,0.8,0.6,1.1l0,0c-0.2,0.2-0.7,0.2-1.2-0.2l-4.5-3c-0.5-0.3-0.8-0.8-0.6-1.1l0,0
						c0.2-0.2,0.7-0.2,1.2,0.2L89.4,130z"/>
				</g>
				<g class="st7">
					<path class="st6" d="M94.8,142.5c0.5,0.3,0.8,0.8,0.6,1.1l0,0c-0.2,0.2-0.7,0.2-1.2-0.2l-4.5-3c-0.5-0.3-0.8-0.8-0.6-1.1l0,0
						c0.2-0.2,0.7-0.2,1.2,0.2L94.8,142.5z"/>
				</g>
				<g class="st5">
					<path class="st6" d="M84.9,143.8c0.5,0.3,0.8,0.8,0.6,1.1l0,0c-0.2,0.2-0.7,0.2-1.2-0.2l-4.5-3c-0.5-0.3-0.8-0.8-0.6-1.1l0,0
						c0.2-0.2,0.7-0.2,1.2,0.2L84.9,143.8z"/>
				</g>
				<g class="st7">
					<path class="st6" d="M85.2,155.1c0.5,0.3,0.8,0.8,0.6,1.1l0,0c-0.2,0.2-0.7,0.2-1.2-0.2l-4.5-3c-0.5-0.3-0.8-0.8-0.6-1.1l0,0
						c0.2-0.2,0.7-0.2,1.2,0.2L85.2,155.1z"/>
				</g>
				<g class="st5">
					<path class="st6" d="M77.3,161c0.5,0.3,0.8,0.8,0.6,1.1l0,0c-0.2,0.2-0.7,0.2-1.2-0.2l-4.5-3c-0.5-0.3-0.8-0.8-0.6-1.1l0,0
						c0.2-0.2,0.7-0.2,1.2,0.2L77.3,161z"/>
				</g>
			</g>
		</g>
		<g>
			<path class="st8" d="M114.1,72.8l-0.8-0.4c-1.6-0.7-2.3-2.6-1.5-4.2l7.5-16.3c0.7-1.6,2.6-2.3,4.2-1.5l0.8,0.4
				c1.6,0.7,2.3,2.6,1.5,4.2l-7.5,16.3C117.6,72.9,115.7,73.6,114.1,72.8z"/>
		</g>
	</g>
	<g>
		<g>
			<path class="st9" d="M84.2,94.7c0,6.8-4.1,12-8.6,16.8c-5.4,5.7-13.2,7.4-22,7.4c-8,0-15.7-1.8-21-6.7
				c-5.3-4.9-9.3-12.4-9.3-19.9c0-10.1,4.2-19.6,12.9-24.3c4.3-2.3,9.6,1.1,14.8,0c11.8-2.4,20.3-1.2,25.6,3.7
				C81.9,76.6,84.2,87.2,84.2,94.7z"/>
		</g>
		<g>
			<path class="st10" d="M73.8,89.5c0,5.3-3.2,9.3-6.6,13c-4.1,4.4-10.2,5.7-17,5.7c-6.2,0-12.2-1.4-16.2-5.2
				c-4.1-3.8-7.2-9.6-7.2-15.4c0-7.8,3.2-15.1,10-18.8c3.3-1.8,7.4,0.8,11.4,0c9.1-1.9,15.7-0.9,19.8,2.9S73.8,83.7,73.8,89.5z"/>
		</g>
		<g>
			<path class="st11" d="M42.9,72.3c0,0-7.2-4.8-11.8,4.7c-5,10.2-3.1,16.2,0.3,19.2c0,0,4.3,1.8,4.5-2.3c0.2-4.1-3.3-7.9-0.8-11.8
				c2.5-3.9,5.4-0.6,8.2-2.2C46.1,78.4,46.4,75.3,42.9,72.3z"/>
		</g>
		<g>
			<path class="st12" d="M47.7,67.5c0,0-10.8-7.9-19.2-4.2c-8.4,3.7,4.8-3,16.6,7.1c3,2.6-5.3-1.3-11.1,2.8
				c-4.4,3.1-4.5,9.1-3.3,10.6c1.2,1.5,0.1-7.2,7.1-8.6c0,0,9.5-0.9,12.1-0.3c1.3,0.3,10.5,2.9,7.5,15.4c-0.9,3.6,8.5-10,1.9-14.4
				c-1-0.7-0.2-2.2-0.2-2.2s7.1-0.7,10.5,1.1c2,1.1,5.3,4.5,5.9,6.6c0.5,1.9,0.2-9.6-12.7-12.1c-10.8-2.1,6-6.2,11.1-4.4
				c5.1,1.8-11.3-5.6-18.1,0.5C50.6,69.9,48.9,68,47.7,67.5z"/>
		</g>
		<g>
			<path class="st1" d="M50.7,69.3c0,0-3-1.1-5.5-2.1c-2.5-1,4.9,3.7,2.3,4.2c-2.6,0.5-6.2,1.3-7,1.9c-0.8,0.6,7.9-0.6,12.3,1.3
				c1.6,0.7,3.8,1.1,7,4.6c0.9,1-0.5-3-2.6-5.6c-1.6-1.9,4.5-1.6,7.1-1.3c2.5,0.3-3.3-1.6-5.4-3.7c-2-2-1-2.7-0.1-3.1
				c0.9-0.3-2.4-0.8-3.6,1.6C54,69.6,52.6,69.3,50.7,69.3z"/>
		</g>
		<g>
			<path class="st0" d="M53.2,71.8c-4.1,0.5-2.7-3.6-2.7-5.3c0.1-2.2-0.6-4.4-1-6.6c0,0,0,0,0,0c0.6,0.5,2.6,0.4,3.5,0
				c0.5,2.1,0.9,4.4,1.3,6.4C54.7,67.7,55.8,71.5,53.2,71.8z"/>
		</g>
		<g>
			<path class="st13" d="M53.1,59.9c0,0.2-0.8,0.4-1.8,0.4c-1,0-1.8-0.2-1.8-0.4c0-0.2,0.8-0.4,1.8-0.4
				C52.3,59.5,53.1,59.7,53.1,59.9z"/>
		</g>
	</g>
</g>
</svg>
