<?xml version="1.0" encoding="utf-8"?>
<!-- Generator: Adobe Illustrator 24.0.1, SVG Export Plug-In . SVG Version: 6.00 Build 0)  -->
<svg version="1.1" id="Capa_1" xmlns="http://www.w3.org/2000/svg" xmlns:xlink="http://www.w3.org/1999/xlink" x="0px" y="0px"
	 viewBox="0 0 190 189.2" style="enable-background:new 0 0 190 189.2;" xml:space="preserve">
<style type="text/css">
	.st0{fill:#E07979;}
	.st1{fill:#CC5E5E;}
	.st2{fill:#C05959;}
	.st3{opacity:0.15;}
	.st4{fill:#720606;}
	.st5{fill:#12E6DB;}
	.st6{fill:#00C1B3;}
</style>
<g>
	<path class="st0" d="M51.9,131.9l-22-41c-0.3-0.5-0.1-1.1,0.4-1.4c0.5-0.3,1.1-0.1,1.4,0.4l22.1,41c0.3,0.5,0.1,1.2-0.4,1.4
		C52.9,132.6,52.2,132.4,51.9,131.9L51.9,131.9z"/>
	<path class="st1" d="M53.2,131.1l-22.1-41c-0.2-0.3-0.5-0.5-0.9-0.5c0,0,0.1-0.1,0.2-0.1c0.5-0.3,1.1-0.1,1.4,0.4l22.1,41
		c0.3,0.5,0.1,1.2-0.4,1.4c-0.2,0.1-0.3,0.1-0.5,0.1C53.3,132.1,53.4,131.6,53.2,131.1z"/>
	<path class="st0" d="M42.4,137.7L6.6,106.2c-0.1-0.1-0.2-0.4,0-0.5c0.1-0.1,0.3-0.2,0.5,0l36.7,30.4c0.4,0.4,0.5,1,0.1,1.4
		C43.6,138,42.9,138.1,42.4,137.7C42.5,137.7,42.5,137.7,42.4,137.7z"/>
	<path class="st1" d="M43.4,136.7L6.7,106.2c0,0-0.1-0.1-0.1-0.1c-0.1-0.1-0.1-0.3,0-0.4c0.1-0.1,0.3-0.2,0.5,0l36.7,30.4
		c0.4,0.4,0.5,1,0.1,1.4c-0.1,0.1-0.1,0.2-0.2,0.2C43.8,137.4,43.7,136.9,43.4,136.7z"/>
	<path class="st0" d="M52.3,142.2c-3.5,1.9-7.9,0.6-9.8-3c-1.9-3.5-0.6-7.9,3-9.8c3.5-1.9,7.9-0.6,9.8,3
		C57.2,135.9,55.8,140.3,52.3,142.2z M46.6,131.6c-2.3,1.3-3.2,4.2-2,6.5c1.3,2.3,4.2,3.2,6.5,2c2.3-1.3,3.2-4.2,2-6.5
		C51.9,131.2,49,130.3,46.6,131.6z"/>
	<path class="st2" d="M33.5,91.7c0.8,1.6,1.2,2.8,1.2,2.8L32,96c-1,0.5-2.3,0.2-2.8-0.8l-1.5-2.7c-0.2-0.3-0.1-0.8,0.2-1
		c0.6-0.4,1.4-1.1,0.9-2c-0.4-0.7-1-0.9-1.8-0.6c-1.8,0.5-2.6,2.6-1.7,4.3l1.8,3.3c0.5,0.9,0.2,2.1-0.8,2.6l-2,1.1
		c0,0-0.4-0.5-1-1.4c0,0,0,0,0,0c-2-2.9-5.7-9.5-2.4-13.1c0,0,0,0,0,0c0.4-0.4,0.9-0.8,1.5-1.1C27.6,81.7,31.6,87.8,33.5,91.7z"/>
	<path class="st1" d="M33.5,91.7c0.8,1.6,1.2,2.8,1.2,2.8l-0.5,0.3c-1-3.4-6.6-11.8-11-9.4c-4.4,2.4-1,9.6,2,14.3l-0.8,0.4
		c0,0-0.4-0.5-1-1.4c0,0,0,0,0,0c-1.9-3-5.5-9.5-2.4-13.1c0,0,0,0,0,0c0.4-0.4,0.9-0.8,1.5-1.1C27.6,81.7,31.6,87.8,33.5,91.7z"/>
	<path class="st0" d="M26,98.4c1.5-1.1-2-4.3-2.1-6.5c-0.1-2.2,1.3-3.6,3.2-4.1c1.9-0.5-2.6-3.5-4.5-0.5c-1.9,3,0,6.3,1.1,8.2
		C24.8,97.4,25.4,98.8,26,98.4z"/>
	<g>
		<path class="st1" d="M53.7,134.3c1.3,2.3,0.4,5.3-2,6.5c-2.3,1.2-5.2,0.4-6.4-1.8c1.4,1.7,3.9,2.2,5.9,1.1c2.3-1.3,3.2-4.2,2-6.5
			c0,0,0-0.1-0.1-0.1C53.3,133.7,53.5,134,53.7,134.3z"/>
		<path class="st1" d="M46,130.2c-3.5,1.9-4.8,6.3-3,9.8c0.1,0.1,0.1,0.3,0.2,0.4c-0.3-0.4-0.6-0.7-0.8-1.2c-1.9-3.5-0.6-7.9,3-9.8
			c3.4-1.8,7.6-0.7,9.6,2.6C52.9,129.3,49.1,128.5,46,130.2z"/>
	</g>
</g>
<g>
	<g>
		<path class="st0" d="M8,184.1c-0.6,0.1-1.3,0-1.8-0.3c-1.2-0.7-1.5-2.2-0.8-3.4c0.1-0.2,3.1-4.9,9.4-10.9
			c5.8-5.4,15.6-12.9,29.7-17.9c12.4-4.4,32.5,26,54.8,27.5c8,0.5,13.9-2.1,19.5-7.5c4.7-4.6,2.2-8.2-2.2-13.9c-1.6-2-3.1-4-3.9-6
			c-1.4-3.5-0.2-5.9,1.2-7.3c3.2-3.4,12-5,26.2-7.3c7.2-1.2,14.6-2.4,20.2-4c8-2.2,8.3-4.1,8.3-4.1c0.1-0.7-0.1-0.9-0.1-0.9
			c-0.2-0.2-1-0.8-4.2-0.9c-2.5-0.1-5.7,0.3-8.7,0.6c-6.1,0.6-10.4,2.1-14,0.5c-2-0.9-2.9-2.4-3-3.4c-0.4-3,2.6-5.6,6.3-8.9
			c1.7-1.4,3.1-3.5,4.3-4.9c1.5-1.7,0.6-2.7,0.6-2.7c0-0.1-0.2-0.5-1.2-0.9c-1-0.5-1.6-1.6-1.4-2.7c0.4-1.6,2.1-2.4,3.5-1.7
			c2.3,1.2,3.7,2.8,3.9,4.8c0.5,4-2.8,7.7-6.8,11.2c-0.8,0.7-2.1,1.8-3.1,2.8c-0.6,0.6-1.2,1.5-0.3,1.6c2.8,0.3,6.8-0.1,10.5-0.5
			c7.5-0.7,13.9-1.4,17,1.8c0.9,0.9,1.8,2.5,1.5,5c-0.6,4.6-6.7,6.8-11.9,8.3c-5.9,1.6-13.4,2.9-20.7,4.1
			c-5.7,0.9-11.1,1.8-15.4,2.8c-5.8,1.4-7.5,2.4-8,3c-0.4,0.5-0.7,0.9-0.2,2.1c0.6,1.4,1.9,3,3.3,4.8c2.1,2.6,4.4,5.6,5.3,8.9
			c1.2,4.2,0,8-3.6,11.5c-6.8,6.7-13.3,8.4-21.5,7.8c-28-1.7-42.8-30.9-54.6-26.7C33,160.9,23.7,167.9,18.3,173
			c-5.9,5.5-8.7,9.9-8.7,10C9.2,183.5,8.7,183.9,8,184.1z"/>
		<g class="st3">
			<path class="st4" d="M141.3,128.1c0.8,0.3,1.5,0.5,2.4,0.7c0,0-0.1,0-0.1,0c-2-0.9-2.9-2.4-3-3.4c-0.4-3,2.6-5.6,6.3-8.9
				c1.7-1.4,3.1-3.5,4.3-4.9c1.5-1.7,0.6-2.7,0.6-2.7c0-0.1-0.2-0.5-1.2-0.9c-1-0.5-1.6-1.6-1.4-2.7c0.2-1.1,1.1-1.8,2-1.9
				c-0.2-0.1-0.5-0.3-0.7-0.4c-1.4-0.7-3.2,0.1-3.5,1.7c-0.3,1.1,0.3,2.2,1.4,2.7c0.9,0.5,1.1,0.8,1.2,0.9c0,0,0.9,1-0.6,2.7
				c-1.2,1.4-2.7,3.4-4.3,4.9c-3.8,3.3-6.8,5.8-6.3,8.9C138.5,125.7,139.4,127.2,141.3,128.1z"/>
			<path class="st4" d="M7.7,181c0.1-0.2,3.1-4.9,9.4-10.9c5.8-5.4,15.1-14.8,29.7-17.9c8.4-1.8,28.8,23.9,55.8,26.4
				c8,0.7,12.8-1,18.4-6.5c4.7-4.6,2.2-8.2-2.2-13.9c-1.6-2-3.1-4-3.9-6c-1.4-3.5-0.2-5.9,1.2-7.3c3.2-3.4,12-5,26.2-7.3
				c7.2-1.2,14.6-2.4,20.2-4c8-2.2,8.3-4.1,8.3-4.1c0.1-0.7-0.1-0.9-0.1-0.9c-0.1-0.2-0.7-0.6-2.5-0.8c0.1,0.1,0.2,0.1,0.2,0.2
				c0.1,0.1,0.2,0.2,0.1,0.9c0,0.1-0.3,1.9-8.3,4.1c-5.6,1.6-13,2.8-20.2,4c-14.2,2.3-23,3.9-26.2,7.3c-1.3,1.4-2.6,3.8-1.2,7.3
				c0.8,2,2.3,3.9,3.9,6c4.4,5.6,6.9,9.3,2.2,13.9c-5.5,5.4-11.9,8.1-19.9,8c-24.5-0.3-41.9-32.4-54.3-28
				c-14.1,5-23.9,12.5-29.7,17.9c-6.3,5.9-9.3,10.7-9.4,10.9c-0.7,1.2-0.4,2.7,0.8,3.4c0.6,0.4,1.2,0.4,1.8,0.3c0,0,0,0,0,0
				C7.2,183.3,7,182,7.7,181z"/>
		</g>
	</g>
	<g>
		<g>
			<g>
				<path class="st0" d="M142.4,68.3c-2.6,4.1-8.6,5-13,5.7c-4.9,0.7-7.7,0.8-12.7,0.7c-8.3-0.2-16.9-1.5-25-3.4
					c-9.5-2.2-18.6-5.8-27.5-9.7c-2.3-1-5.8-2.1-7.4-4.2c-2.9-3.8,2.7-8.5,5.4-4.5c-0.1-0.2-0.3-0.3-0.4-0.5c2.1,2.5,6.8,4,9.6,5.3
					c4.2,1.9,8.4,3.7,12.8,5.1c7.5,2.5,15.2,3.9,22.9,5c5.9,0.9,11.9,1.4,17.9,1.2c4.1-0.2,8-0.6,12-1.9c1.4-0.4,3.1-1.6,4.5-1.9
					C142.8,64.8,143.4,66.7,142.4,68.3z"/>
				<path class="st1" d="M55.4,53.1c0.7-1.5,2.1-2.6,3.7-2.8c1.4-0.2,2.8,0.5,3.8,1.8c1.6,1.6,4.5,2.8,6.8,3.7
					c0.8,0.3,1.5,0.6,2.2,0.9c4.8,2.2,8.8,3.8,12.7,5.1c7.8,2.6,15.9,4,22.8,5c6.9,1,12.5,1.4,17.7,1.2c4.8-0.2,8.3-0.8,11.8-1.8
					c0.6-0.2,1.2-0.5,1.9-0.8c0.9-0.4,1.8-0.9,2.7-1.1c0.9-0.2,1.6,0.2,2.1,0.9c0.6,1,0.5,2.5-0.2,3.7l0,0
					c-2.9,4.5-9.1,5.4-13.7,6.1c-5.2,0.7-8,0.8-12.8,0.7c-7.6-0.2-16-1.3-25.1-3.5c-8.3-1.9-17.1-5-27.7-9.8
					c-0.4-0.2-0.9-0.4-1.4-0.6c-2.2-0.9-4.9-2-6.3-3.9c-1-1.4-1.3-3-0.7-4.6C55.4,53.2,55.4,53.2,55.4,53.1z M61.1,52.9
					c-0.5-0.5-1.1-0.8-1.8-0.7c-1,0.1-1.9,0.9-2.3,1.8c-0.2,0.6-0.4,1.6,0.4,2.6c1.1,1.5,3.6,2.5,5.6,3.3c0.5,0.2,1,0.4,1.5,0.6
					c10.5,4.7,19.2,7.8,27.4,9.7c9,2.1,17.3,3.2,24.8,3.4c4.7,0.1,7.5,0,12.6-0.7c4.2-0.6,10-1.4,12.4-5.3c0.5-0.7,0.4-1.4,0.2-1.6
					c0-0.1-0.1-0.1-0.2-0.1c-0.6,0.1-1.5,0.5-2.3,0.9c-0.7,0.3-1.4,0.7-2.1,0.9c-3.6,1.1-7.3,1.7-12.2,1.9c-5.3,0.2-11-0.1-18.1-1.2
					c-7-1-15.2-2.4-23.1-5.1c-3.9-1.3-8-2.9-12.8-5.1c-0.6-0.3-1.3-0.6-2.1-0.9C66.1,56.4,62.9,55,61.1,52.9L61.1,52.9z"/>
			</g>
			<g>
				<path class="st0" d="M146.7,59.6c-1.5,4.6-9.4,7.3-13.3,8c-6,1-12.4,1.1-18.5,0.8C101.9,67.9,90,64.6,78,59.9
					c-5.2-2-11.9-4-16.4-7.5c-1.9-1.5-1.4-4.2,1.3-3.5c2.8,0.8,5.7,2.9,8.4,4c12.4,5.2,25.6,9.4,39.1,9.7c6.9,0.1,13.8-0.4,20.6-1.6
					c2.1-0.4,4.2-0.8,6.3-1.3C139,59.4,148,54.3,146.7,59.6z"/>
				<path class="st1" d="M59.8,49.2C59.8,49.2,59.8,49.2,59.8,49.2c0.4-0.9,1.6-1.7,3.4-1.2c1.7,0.5,3.5,1.5,5.2,2.4
					c1.2,0.6,2.2,1.2,3.3,1.7c15.4,6.4,27.3,9.4,38.7,9.6c6.9,0.1,13.8-0.4,20.5-1.6c2-0.4,4.1-0.8,6.3-1.3c1.2-0.3,2.3-0.6,3.5-1
					c0.4-0.1,0.8-0.3,1.2-0.4c0.1,0,0.2-0.1,0.4-0.2c0.2-0.1,0.4-0.2,0.6-0.3c0.8-1.2,2.4-1.6,3.7-1.1c1.5,0.5,2.3,1.6,1.6,4l0,0
					c-1.9,5.8-12.3,8.4-14.5,8.8c-5.2,0.9-11.1,1.2-18.7,0.9c-11.6-0.5-23.1-3.1-37.2-8.6c-1.1-0.4-2.2-0.8-3.4-1.2
					c-4.5-1.6-9.6-3.5-13.2-6.4C59.7,52.1,59.2,50.5,59.8,49.2z M142.4,59.2c-0.4,0.1-0.8,0.3-1.2,0.4c-1.2,0.4-2.4,0.8-3.6,1.1
					c-2.2,0.5-4.3,0.9-6.3,1.3c-6.7,1.2-13.7,1.8-20.8,1.6c-11.7-0.2-23.8-3.2-39.4-9.8c-1.2-0.5-2.3-1.1-3.5-1.8
					c-1.6-0.9-3.3-1.8-4.8-2.2c-0.7-0.2-1.2-0.1-1.3,0.2c0,0,0,0,0,0c-0.1,0.3,0,1,0.7,1.6c3.4,2.7,8.4,4.5,12.7,6.1
					c1.2,0.4,2.3,0.8,3.4,1.3c13.9,5.4,25.2,8,36.6,8.5c7.5,0.3,13.3,0,18.3-0.8c4.1-0.7,12.2-3.1,13.5-7c0.4-1.4-0.4-1.9-0.8-2
					c-0.5-0.2-1.5-0.1-1.8,0.8C144.1,58.3,142.6,59.2,142.4,59.2z"/>
			</g>
			<g>
				<path class="st0" d="M64.2,43.3c14,8.8,31.5,13.2,48.1,13.5c10.7,0.2,20.3-1.5,30.3-5c1.6-0.6,3.5-2,5.1-3
					c3.2-2.1,2.5,2.9,0.6,5.2c-3.1,3.6-6.6,4.5-11.1,5.7c-13.5,3.6-28.4,4-42.3,1c-8.7-1.9-17-4.6-25.3-8c-2.6-1.1-9-2.9-9.8-6
					C59.1,43.9,61.9,41.9,64.2,43.3z"/>
				<path class="st1" d="M59.1,44.2c0.2-0.5,0.6-1,1.1-1.4c1.3-1.1,3.1-1.2,4.5-0.3l0,0c13.2,8.3,30.1,13,47.6,13.4
					c10.4,0.2,19.9-1.4,29.9-5c1.1-0.4,2.5-1.3,3.8-2.2c0.4-0.3,0.7-0.5,1.1-0.7c1.8-1.2,2.7-0.5,3.1,0c1.2,1.4,0.2,4.8-1.4,6.6
					c-3.2,3.8-7.1,4.8-11.5,6l-0.1,0c-13.8,3.6-29,4-42.7,1c-8.3-1.8-16.6-4.5-25.4-8.1c-0.4-0.2-0.9-0.4-1.5-0.6
					c-3.4-1.3-8-3-8.8-6C58.7,45.9,58.8,45,59.1,44.2z M63.8,44.1c-1-0.6-1.9-0.3-2.5,0.2c-0.3,0.2-0.9,0.9-0.6,2.1
					c0.6,2.1,5.2,3.8,7.7,4.7c0.6,0.2,1.1,0.4,1.6,0.6c8.7,3.6,16.9,6.2,25.1,8c13.5,2.9,28.3,2.6,41.9-1l0.1,0
					c4.3-1.1,7.7-2,10.6-5.4c1.2-1.4,1.6-3.6,1.4-4.1c-0.1,0-0.3,0.1-0.8,0.3c-0.4,0.2-0.7,0.5-1.1,0.7c-1.4,0.9-2.9,1.9-4.2,2.4
					c-10.2,3.7-20,5.3-30.6,5.1C94.5,57.4,77.3,52.6,63.8,44.1z"/>
			</g>
			<g>
				<path class="st0" d="M153.9,35.1c-0.3,6.1-9.7,9.6-14.2,11.5c-6.6,2.7-13.5,4.3-20.5,5.2c-14.2,1.6-28.7-1.9-41.7-7.6
					c-3.3-1.4-6.5-3.1-9.6-4.9c-2.2-1.3-7.5-3.8-8.2-6.5c-0.9-3.7,3-3.1,4.8-1.9c3.3,2.3,6.6,4.4,10.1,6.2
					c13.7,6.8,29.3,10.7,44.5,9.1c7.7-0.8,15.7-2.6,22.7-6.1c2.4-1.2,4.8-2.6,6.9-4.2C149.7,35.1,154.1,30.9,153.9,35.1z"/>
				<path class="st1" d="M58.9,30.5c0.2-0.5,0.5-0.8,0.8-0.9c1.5-1.1,4-0.3,5.3,0.6c3.7,2.6,6.8,4.5,10,6.1c10.4,5.2,26.4,10.9,44,9
					c8.7-1,16.3-3,22.4-6c2.6-1.3,4.9-2.7,6.7-4.1c0.1-0.1,0.3-0.2,0.5-0.4c1.8-1.5,3.7-2.9,5.1-2.2c0.8,0.4,1.1,1.3,1.1,2.7l0,0
					c-0.3,6.4-9.3,10.1-14.1,12l-0.7,0.3c-6.3,2.6-13.3,4.4-20.8,5.2c-12.9,1.5-27.1-1.1-42.2-7.6c-3.6-1.6-6.7-3.2-9.7-5
					c-0.4-0.2-0.9-0.5-1.4-0.8c-2.8-1.5-6.5-3.6-7.2-6.3C58.6,31.8,58.7,31,58.9,30.5z M152.9,34.2c-0.3,0-1,0.2-3.1,2
					c-0.2,0.2-0.4,0.3-0.5,0.4c-2,1.5-4.4,2.9-7,4.3c-6.3,3.1-14,5.2-23,6.2c-18,2-34.4-3.9-45-9.1c-3.3-1.6-6.5-3.6-10.2-6.2
					c-1-0.7-2.7-1-3.3-0.6c-0.3,0.3-0.3,0.9-0.1,1.4c0.4,1.8,4.1,3.8,6.3,5.1c0.6,0.3,1.1,0.6,1.5,0.9c2.9,1.8,6,3.4,9.5,4.9
					c14.8,6.4,28.6,8.9,41.3,7.5c7.3-0.8,14.1-2.6,20.3-5.1l0.7-0.3c4.4-1.8,12.6-5.1,12.9-10.3C153,34.5,152.9,34.3,152.9,34.2z"/>
			</g>
			<g>
				<path class="st0" d="M66.1,38.1c22.6,14.3,53,19.3,77.5,7c1.5-0.8,3.6-2.4,5.2-2.9c3.6-1,2.6,2.9,1.1,4.5
					c-3.2,3.6-7.9,5.3-12.3,6.6c-13.5,3.9-28,4.4-41.7,1.6c-8.6-1.8-16.9-4.7-25-8c-2.5-1-8.4-2.2-9.2-5.3
					C61,38.9,63.8,36.8,66.1,38.1z"/>
				<path class="st1" d="M61,39.1c0.3-0.6,0.6-1.1,1.2-1.5c1.3-1,3-1.1,4.4-0.3l0,0c24.3,15.4,54.4,18.1,76.6,6.9
					c0.5-0.3,1.1-0.6,1.7-1c1.2-0.8,2.5-1.6,3.7-1.9c2-0.5,2.9,0.2,3.3,0.9c0.9,1.6-0.3,4.1-1.3,5.2c-3.4,3.7-8.1,5.5-12.8,6.8
					c-13.6,3.9-28.2,4.5-42.2,1.6c-7.5-1.6-15.5-4.1-25.1-8c-0.5-0.2-1.2-0.4-1.9-0.7c-3-1-7.1-2.3-7.8-5.3
					C60.5,40.9,60.6,39.9,61,39.1z M65.6,39c-0.9-0.5-1.8-0.3-2.4,0.2c-0.7,0.5-0.9,1.4-0.7,2.2c0.5,2,4.2,3.1,6.6,3.9
					c0.8,0.2,1.5,0.5,2,0.7c9.6,3.9,17.4,6.4,24.8,8c13.7,2.8,28,2.3,41.3-1.5c4.4-1.3,8.8-2.9,11.9-6.3c0.8-0.9,1.3-2.5,1.1-2.9
					c-0.1-0.1-0.5-0.2-1.2,0c-1,0.3-2.1,1-3.2,1.7c-0.7,0.4-1.3,0.8-1.9,1.1c-11.7,5.9-25.5,8.2-39.9,6.6
					C90.6,51.1,77.3,46.4,65.6,39z"/>
			</g>
			<g>
				<path class="st0" d="M130,77.6c-4.2,3.1-9.7,3.2-14.7,3.5c-5.5,0.3-11-0.1-16.5-1c-11.7-2-23.6-6.9-34.2-12.4
					c-2.1-1.1-12.3-6.5-5.9-9.5c1.7-0.8,2.8,0.2,4.1,1.1c2.1,1.5,4.3,2.7,6.5,3.9c10.3,5.3,21.5,8.5,32.8,10.3
					c6.5,1,12.9,1.6,19.5,1.3c2.4-0.1,6.7-0.6,9.2-1C132.4,73.5,132.2,76,130,77.6z"/>
				<path class="st1" d="M56,59.4c0.4-0.8,1.2-1.5,2.4-2.1c2-0.9,3.4,0,4.6,0.9l0.4,0.3c2.1,1.4,4.2,2.7,6.4,3.8
					c9.5,4.9,20.4,8.3,32.5,10.2c7.4,1.1,13.6,1.6,19.3,1.3c2.3-0.1,6.6-0.5,9.1-0.9c0.9-0.1,1.6,0.3,1.9,1c0.5,1.3-0.4,3.2-2,4.5
					l0,0c-4.1,3.1-9.4,3.4-14.1,3.6l-1.1,0.1c-5.5,0.3-11.1,0-16.7-1c-10.4-1.8-22-6-34.5-12.5c-5.7-2.9-8.6-5.7-8.5-8
					C55.7,60.1,55.8,59.7,56,59.4z M130.9,74.8c-2.5,0.4-6.9,0.9-9.3,1c-5.9,0.2-12.1-0.2-19.6-1.4C89.7,72.5,78.5,69,68.9,64
					c-2.3-1.2-4.5-2.5-6.6-4l-0.4-0.3c-1.2-0.8-1.8-1.2-2.8-0.7c-0.7,0.3-1.5,0.9-1.6,1.5c0,1.1,1.9,3.4,7.5,6.3
					c12.3,6.4,23.7,10.5,34,12.3c5.5,1,10.9,1.3,16.3,1l1.1-0.1c4.7-0.2,9.5-0.5,13.2-3.2C130.5,76.1,130.9,75.1,130.9,74.8z"/>
			</g>
			<g>
				<path class="st5" d="M92.2,91.3c-7.7,2.4-16.4-0.1-23.5-3.3c-2.8-1.3-16.1-7.5-10.9-10.9c2.5-1.7,7.9,2.5,10.2,3.6
					c1.6,0.8,3.2,1.5,4.9,2.2c3.9,1.7,7.9,3.2,12,4.4c2,0.6,5.2,0.5,7,1.4C92.9,89.1,94,90.7,92.2,91.3z"/>
				<path class="st6" d="M55.9,77.7c0.2-0.5,0.6-1,1.4-1.5c2.4-1.6,6.3,0.7,9.1,2.4c0.8,0.5,1.5,0.9,2,1.1c1.7,0.8,3.3,1.5,4.8,2.2
					c4.5,2,8.3,3.3,11.9,4.3c0.8,0.2,1.7,0.3,2.7,0.4c1.6,0.2,3.3,0.4,4.5,1c0.8,0.4,1.8,1.5,1.7,2.7c0,0.5-0.3,1.4-1.6,1.8l0,0
					c-6.5,2-14.7,0.9-24.1-3.4c-5.6-2.5-12.4-6.3-12.6-9.8C55.7,78.7,55.7,78.2,55.9,77.7z M92.2,90.2c0-0.2-0.3-0.6-0.7-0.8
					c-1-0.5-2.5-0.7-3.9-0.9c-1.1-0.1-2.1-0.3-2.9-0.5c-3.7-1-7.6-2.4-12.2-4.4c-1.5-0.7-3.1-1.4-4.9-2.2c-0.6-0.3-1.3-0.7-2.1-1.2
					c-2.2-1.3-5.8-3.5-7.2-2.5c-0.8,0.5-0.8,0.9-0.8,1.1c0.1,1.8,4.8,5.1,11.5,8.2c9.1,4.1,16.8,5.2,22.9,3.3
					C92.1,90.3,92.2,90.3,92.2,90.2z"/>
			</g>
			<g>
				<path class="st0" d="M121,82.8c-3.2,3.4-8.8,3.7-13,3.8c-4.9,0.1-9.8-0.4-14.6-1.4C82.4,83,71.5,78,61.8,72.5
					c-2.3-1.3-4-2.1-6.3-3.4c-1.5-0.9-4.6-2.8-4.2-5.1c0.6-4.5,10.2,2.2,12.1,3.1c9.7,4.9,19.4,9.6,29.9,12.2
					c5.6,1.4,11.2,1.7,17,2.1c2.6,0.2,5.4,0.1,8-0.3C118.6,81,123.2,80.4,121,82.8z"/>
				<path class="st1" d="M50.6,62.9c0.3-0.6,0.7-1,1.1-1.1c2.3-1.2,6.5,1.2,10.7,3.7c0.6,0.4,1.1,0.7,1.4,0.8
					c9.8,4.9,19.4,9.6,29.7,12.2c5.3,1.3,10.4,1.7,15.9,2l0.9,0.1c2.9,0.2,5.5,0.1,7.8-0.3c0.8-0.1,3.6-0.5,4.3,0.9
					c0.4,0.7,0.1,1.5-0.7,2.4l0,0c-3.3,3.4-8.5,4-13.6,4.1c-4.8,0.1-9.9-0.4-14.8-1.4c-9.7-2-20.4-6.3-31.8-12.9
					c-1-0.6-1.9-1.1-2.8-1.5c-1.1-0.6-2.2-1.2-3.5-1.9c-1.5-0.9-5.1-3.1-4.7-6C50.4,63.4,50.5,63.1,50.6,62.9z M120.5,82
					c-0.6-0.1-1.5,0-2.1,0c-2.5,0.4-5.1,0.5-8.2,0.3l-0.9-0.1c-5.6-0.4-10.8-0.7-16.2-2.1C82.6,77.6,72.9,72.9,63,67.9
					c-0.3-0.2-0.8-0.5-1.5-0.9c-2-1.2-7.4-4.4-9-3.6c-0.1,0-0.3,0.1-0.3,0.6c-0.2,1.7,2.7,3.5,3.8,4.1c1.2,0.7,2.3,1.3,3.4,1.9
					c0.9,0.5,1.8,1,2.9,1.6C73.5,78.1,84,82.4,93.6,84.3c4.8,1,9.8,1.4,14.4,1.4c4.5-0.1,9.6-0.6,12.4-3.5
					C120.4,82.1,120.4,82,120.5,82z"/>
			</g>
			<g>
				<path class="st5" d="M107.4,89.2c-4.5,2.2-7.9,1.9-12.6,0.7C89.3,88.6,83.9,87,78.6,85c-5.2-2-10.4-4.3-15.5-6.5
					c-1.8-0.8-11.8-5-6.2-8c2.3-1.2,6.8,2.9,8.7,3.9c5,2.7,10.2,5.3,15.5,7.3c5.3,1.9,10.8,3.5,16.3,4.4c2.6,0.5,5.3,1.1,7.9,0.9
					C109.1,86.8,108.8,88,107.4,89.2z"/>
				<path class="st1" d="M54.6,71.5c0.3-0.7,1-1.3,2-1.9c2.2-1.2,5.3,1,7.7,2.8c0.7,0.5,1.3,0.9,1.8,1.2c5.1,2.7,10.2,5.3,15.4,7.2
					c5.2,1.9,10.8,3.4,16.2,4.4c0.4,0.1,0.7,0.1,1.1,0.2c2.2,0.4,4.5,0.8,6.6,0.7c1.5-0.1,3.3-0.1,3.8,1.2c0.2,0.6,0.2,1.5-1.2,2.7
					l-0.2,0.1c-4.6,2.3-8,2-13.2,0.8c-6.3-1.5-11.5-3.1-16.2-4.9c-4.5-1.7-9-3.7-13.3-5.6l-2.4-1c-5.5-2.4-8.2-4.5-8.2-6.6
					C54.3,72.3,54.4,71.9,54.6,71.5z M107.3,88c-0.3-0.1-0.8-0.1-1.7,0c-2.4,0.2-4.8-0.3-7.1-0.7c-0.4-0.1-0.7-0.1-1.1-0.2
					c-5.5-1-11.2-2.5-16.5-4.5c-5.3-2-10.4-4.6-15.6-7.3c-0.5-0.3-1.2-0.7-2-1.3c-1.8-1.2-4.7-3.3-5.9-2.6c-0.5,0.2-1.2,0.7-1.2,1.2
					c0,0.4,0.6,2.1,7.1,4.9l2.4,1c4.3,1.9,8.8,3.9,13.3,5.6c4.7,1.8,9.8,3.3,16,4.8c4.8,1.2,7.9,1.4,11.9-0.6
					C107.1,88.2,107.2,88.1,107.3,88z"/>
			</g>
		</g>
		<g>
			<g>
				<path class="st0" d="M65.4,117c-3.9-2.8-4.7-9.1-5.2-13.7c-0.6-5.2-0.7-8.1-0.5-13.3c0.3-8.7,1.8-17.6,3.7-26
					c2.3-9.8,5.8-19.4,9.8-28.6c1-2.4,2.1-6,4.2-7.7c3.7-3,8.1,2.9,4.2,5.8c0.2-0.1,0.3-0.3,0.4-0.4c-2.5,2.2-3.9,7-5.2,10
					c-1.9,4.3-3.6,8.7-5.1,13.2c-2.5,7.8-4,15.8-5.2,23.9c-0.9,6.2-1.6,12.4-1.4,18.7c0.1,4.3,0.5,8.3,1.6,12.5
					c0.4,1.5,1.5,3.3,1.7,4.7C68.7,117.5,67,118.1,65.4,117z"/>
				<path class="st1" d="M81.4,26.4c1.4,0.7,2.5,2.3,2.6,3.9c0.1,1.5-0.5,2.9-1.7,3.9c-1.5,1.6-2.7,4.6-3.7,7
					c-0.3,0.8-0.6,1.6-0.9,2.3c-2.2,4.9-3.8,9.1-5.1,13.1c-2.6,8.1-4.1,16.5-5.2,23.7c-1.1,7.2-1.5,13.1-1.4,18.5
					c0.1,5,0.6,8.7,1.6,12.3c0.2,0.6,0.4,1.2,0.7,1.9c0.4,0.9,0.8,1.9,1,2.8c0.1,0.9-0.2,1.7-0.9,2.2c-1,0.6-2.4,0.5-3.6-0.3l0,0
					c-4.3-3.1-5-9.6-5.6-14.4C58.7,98,58.7,95,58.9,90c0.3-7.9,1.5-16.7,3.7-26.2c2-8.6,5.1-17.7,9.8-28.8c0.2-0.5,0.4-1,0.6-1.5
					c0.9-2.3,2-5.1,3.8-6.5c1.3-1.1,2.9-1.3,4.4-0.7C81.3,26.4,81.4,26.4,81.4,26.4z M81.5,32.4c0.5-0.5,0.8-1.2,0.7-1.9
					c-0.1-1-0.8-2-1.7-2.4c-0.6-0.3-1.5-0.4-2.5,0.4c-1.5,1.2-2.5,3.7-3.3,5.8c-0.2,0.6-0.4,1.1-0.6,1.6c-4.7,10.9-7.8,20-9.7,28.4
					c-2.2,9.4-3.4,18-3.7,25.8c-0.2,4.9-0.2,7.9,0.5,13.1c0.5,4.4,1.2,10.4,4.8,13c0.7,0.5,1.3,0.4,1.5,0.3c0.1,0,0.1-0.1,0.1-0.3
					c-0.1-0.7-0.5-1.5-0.8-2.4c-0.3-0.7-0.6-1.5-0.8-2.2c-1-3.8-1.5-7.6-1.6-12.8c-0.1-5.5,0.3-11.5,1.4-18.8
					c1.1-7.3,2.6-15.8,5.2-24c1.3-4.1,2.9-8.3,5.1-13.3c0.3-0.6,0.6-1.4,0.9-2.2C78.1,37.5,79.4,34.2,81.5,32.4L81.5,32.4z"/>
			</g>
			<g>
				<path class="st0" d="M73.7,121.7c-4.4-1.7-6.8-9.9-7.4-14.1c-0.9-6.3-0.8-13-0.5-19.3c0.7-13.6,4.1-25.9,8.8-38.4
					c2-5.4,4-12.4,7.4-17c1.5-2,4.1-1.4,3.3,1.5c-0.8,2.9-2.9,5.9-4,8.7c-5.2,12.9-9.5,26.6-9.9,40.6c-0.2,7.2,0.1,14.5,1.2,21.6
					c0.3,2.2,0.7,4.4,1.1,6.6C74,113.6,78.8,123.1,73.7,121.7z"/>
				<path class="st1" d="M85.1,31C85.1,31,85.1,31,85.1,31c0.9,0.5,1.6,1.7,1.1,3.6c-0.5,1.8-1.4,3.6-2.4,5.4
					c-0.6,1.2-1.2,2.3-1.7,3.4c-6.4,15.9-9.5,28.4-9.9,40.3c-0.2,7.3,0.1,14.4,1.2,21.4c0.3,2.1,0.7,4.3,1.1,6.6
					c0.2,1.2,0.6,2.4,0.9,3.6c0.1,0.4,0.2,0.9,0.4,1.3c0,0.1,0.1,0.3,0.2,0.4c0.1,0.2,0.2,0.4,0.3,0.6c1.2,0.9,1.5,2.5,1,3.8
					c-0.5,1.5-1.6,2.4-3.8,1.6l0,0c-5.5-2.1-7.8-13-8.2-15.3c-0.8-5.4-0.9-11.6-0.5-19.5c0.6-12.2,3.4-24.1,8.8-38.7
					c0.4-1.1,0.8-2.3,1.3-3.5c1.6-4.7,3.5-10,6.3-13.7C82.3,30.9,83.9,30.4,85.1,31z M74.1,117.1c-0.1-0.4-0.2-0.8-0.4-1.3
					c-0.4-1.2-0.7-2.5-1-3.8c-0.4-2.3-0.8-4.5-1.1-6.6c-1.1-7.1-1.5-14.4-1.2-21.7c0.4-12.2,3.5-24.8,10-41c0.5-1.2,1.1-2.4,1.8-3.6
					c0.9-1.7,1.8-3.4,2.2-5c0.2-0.7,0.1-1.2-0.2-1.4c0,0,0,0,0,0c-0.3-0.2-1,0-1.6,0.8c-2.7,3.5-4.5,8.7-6,13.2
					c-0.4,1.2-0.8,2.4-1.3,3.5c-5.4,14.4-8.1,26.2-8.7,38.1c-0.4,7.8-0.3,13.9,0.5,19.1c0.6,4.3,2.7,12.8,6.5,14.2
					c1.4,0.5,1.8-0.4,2-0.8c0.2-0.6,0.1-1.5-0.7-1.9C74.9,119,74.2,117.4,74.1,117.1z"/>
			</g>
			<g>
				<path class="st0" d="M90.7,35.8c-8.7,14.5-13.2,32.7-13.7,50C76.5,97,78,107,81.2,117.5c0.5,1.7,1.8,3.7,2.8,5.4
					c1.9,3.4-2.8,2.6-5,0.5c-3.4-3.3-4.2-7-5.3-11.7c-3.2-14.2-3.4-29.7-0.2-44.2c2-9,4.7-17.7,8.1-26.2c1.1-2.7,2.9-9.3,5.9-10.1
					C90.1,30.4,92,33.4,90.7,35.8z"/>
				<path class="st1" d="M89.9,30.5c0.5,0.3,0.9,0.6,1.3,1.1c1,1.4,1.1,3.2,0.2,4.7l0,0c-8.2,13.7-13,31.3-13.6,49.5
					c-0.4,10.8,1,20.8,4.3,31.4c0.4,1.2,1.2,2.6,2.1,4c0.2,0.4,0.5,0.8,0.7,1.2c1.1,1.9,0.4,2.8,0,3.2c-1.4,1.2-4.6,0.1-6.3-1.5
					c-3.6-3.4-4.5-7.4-5.5-12.1l0-0.1c-3.3-14.5-3.3-30.4-0.2-44.6c1.9-8.7,4.5-17.3,8.1-26.4c0.2-0.4,0.4-1,0.6-1.6
					c1.3-3.5,3-8.3,5.9-9.1C88.2,30,89.1,30.1,89.9,30.5z M89.9,35.3c0.6-1,0.3-2-0.1-2.6c-0.2-0.3-0.9-1-2-0.7
					c-2,0.6-3.8,5.4-4.7,8c-0.2,0.6-0.4,1.2-0.6,1.6c-3.6,9-6.2,17.5-8.1,26.1c-3,14-3,29.5,0.2,43.8l0,0.1c1,4.5,1.8,8.1,5,11.1
					c1.3,1.3,3.4,1.7,3.9,1.5c0-0.1-0.1-0.4-0.3-0.8c-0.2-0.4-0.4-0.8-0.7-1.1c-0.9-1.5-1.8-3-2.2-4.4C77,107,75.6,96.9,76,85.8
					C76.6,67.2,81.5,49.3,89.9,35.3z"/>
			</g>
			<g>
				<path class="st0" d="M97,129.6c-5.9-0.4-9.1-10.3-10.7-15c-2.5-6.9-3.9-14.2-4.6-21.5c-1.3-14.8,2.3-29.9,7.9-43.5
					c1.4-3.4,3-6.7,4.9-9.9c1.3-2.3,3.7-7.8,6.4-8.4c3.6-0.9,2.9,3.2,1.7,5.1c-2.3,3.4-4.3,6.8-6.1,10.5C89.7,61,85.7,77.2,87,93.1
					c0.7,8.1,2.3,16.4,5.5,23.8c1.1,2.5,2.4,5,3.9,7.3C97.1,125.2,101.1,129.9,97,129.6z"/>
				<path class="st1" d="M103,30.5c0.4,0.2,0.7,0.6,0.9,0.8c1,1.6,0.2,4.2-0.7,5.6c-2.5,3.8-4.4,7.1-6,10.3
					C92.1,57.9,86.4,74.6,87.9,93c0.8,9.1,2.6,17,5.4,23.5c1.2,2.7,2.5,5.1,3.8,7.1c0.1,0.1,0.2,0.3,0.3,0.5c1.4,1.9,2.8,3.9,2,5.4
					c-0.4,0.8-1.3,1.1-2.6,1.1l0,0c-6.2-0.5-9.5-9.9-11.3-14.9l-0.3-0.7c-2.4-6.7-3.9-14-4.6-21.8c-1.2-13.5,1.5-28.3,8-43.9
					c1.5-3.7,3.2-7,4.9-10c0.2-0.4,0.5-0.9,0.8-1.5c1.5-2.9,3.6-6.8,6.1-7.4C101.7,30.1,102.5,30.2,103,30.5z M97.9,128.6
					c0-0.3-0.2-1.1-1.8-3.3c-0.2-0.2-0.3-0.4-0.4-0.6c-1.4-2.1-2.7-4.6-4-7.4c-2.9-6.6-4.8-14.7-5.6-24.1
					c-1.6-18.9,4.3-35.9,9.5-46.8c1.6-3.4,3.6-6.7,6.1-10.6c0.7-1.1,1-2.8,0.6-3.4c-0.2-0.4-0.9-0.3-1.4-0.2
					c-1.7,0.4-3.7,4.2-4.9,6.4c-0.3,0.6-0.6,1.1-0.8,1.5c-1.7,3-3.3,6.2-4.8,9.8c-6.4,15.3-9,29.8-7.9,43c0.7,7.6,2.2,14.8,4.5,21.3
					l0.3,0.7c1.6,4.6,4.7,13.3,9.7,13.7C97.6,128.7,97.8,128.6,97.9,128.6z"/>
			</g>
			<g>
				<path class="st0" d="M95.6,37.8c-14.1,23.4-19.4,55-8,80.8c0.7,1.6,2.2,3.7,2.7,5.5c0.9,3.8-2.8,2.6-4.3,1
					c-3.4-3.5-4.9-8.3-6.1-13C76.3,98,76.1,82.9,79,68.6c1.8-8.9,4.8-17.5,8.1-26c1-2.6,2.2-8.7,5.2-9.5
					C95,32.5,96.9,35.5,95.6,37.8z"/>
				<path class="st1" d="M94.7,32.5c0.5,0.3,1,0.7,1.4,1.2c1,1.4,1,3.2,0.2,4.6l0,0c-15.2,25.1-18.3,56.5-7.9,79.9
					c0.2,0.5,0.6,1.2,1,1.8c0.7,1.3,1.5,2.6,1.7,3.9c0.5,2.1-0.2,3-0.9,3.4c-1.5,0.9-3.9-0.3-5-1.5c-3.5-3.6-5.1-8.6-6.3-13.4
					c-3.5-14.3-3.8-29.5-0.8-44.1c1.6-7.8,4.2-16.1,8.1-26.1c0.2-0.5,0.4-1.2,0.7-2c1-3.1,2.3-7.3,5.2-8.1
					C93,32,93.9,32.1,94.7,32.5z M94.8,37.3c0.5-0.9,0.3-1.9-0.1-2.5c-0.5-0.7-1.3-1-2.1-0.8c-1.9,0.5-3.1,4.3-3.9,6.8
					c-0.2,0.8-0.5,1.5-0.7,2.1c-3.9,9.9-6.4,18.1-8,25.8C77,83,77.3,98,80.7,111.9c1.1,4.6,2.6,9.3,5.8,12.6
					c0.9,0.9,2.4,1.4,2.8,1.2c0.1-0.1,0.2-0.5,0-1.3c-0.2-1-0.9-2.2-1.5-3.4c-0.4-0.7-0.8-1.4-1-2c-5.5-12.4-7.4-26.8-5.6-41.8
					C82.8,63.2,87.5,49.4,94.8,37.3z"/>
			</g>
			<g>
				<path class="st0" d="M56.7,103.9c-2.9-4.5-2.9-10.2-3.1-15.4c-0.2-5.7,0.2-11.5,1.2-17.2c2.2-12.2,7-24.6,12.4-35.5
					c1.1-2.2,6.5-12.8,9.2-6c0.7,1.8-0.2,2.9-1.1,4.2c-1.4,2.2-2.7,4.4-3.8,6.7C66.3,51.5,63.1,63,61.2,74.9
					c-1.1,6.8-1.8,13.4-1.6,20.3c0.1,2.5,0.4,7,0.8,9.6C60.6,106.4,58.2,106.2,56.7,103.9z"/>
				<path class="st1" d="M75.4,26.9c0.8,0.4,1.5,1.3,2,2.5c0.9,2.1-0.1,3.5-0.9,4.8l-0.3,0.4c-1.4,2.1-2.6,4.3-3.8,6.6
					C67.6,51,64.1,62.4,62.1,75c-1.2,7.7-1.7,14.1-1.6,20.1c0.1,2.4,0.4,6.9,0.8,9.5c0.1,0.9-0.3,1.7-1,2c-1.3,0.5-3.1-0.4-4.3-2.2
					l0,0c-2.9-4.4-3.1-9.9-3.2-14.8l0-1.1C52.5,82.8,52.9,77,54,71.2c1.9-10.9,6.1-22.9,12.5-35.8c2.9-5.9,5.6-8.8,7.8-8.8
					C74.7,26.6,75,26.7,75.4,26.9z M59.4,104.9c-0.4-2.7-0.7-7.2-0.8-9.7c-0.1-6.1,0.4-12.6,1.6-20.5c2-12.8,5.5-24.4,10.5-34.4
					c1.2-2.4,2.5-4.6,3.9-6.8l0.3-0.4c0.8-1.2,1.2-1.9,0.8-2.9c-0.3-0.7-0.8-1.6-1.4-1.7c-1,0-3.3,2-6.1,7.7
					C61.8,49,57.6,60.8,55.8,71.5c-1,5.7-1.4,11.4-1.2,17l0,1.1c0.2,4.9,0.3,9.9,2.9,13.8C58.2,104.5,59.1,104.9,59.4,104.9z"/>
			</g>
			<g>
				<path class="st0" d="M44.3,64.2c-2.2-8.1,0.4-17.1,3.6-24.5c1.3-2.9,7.4-16.6,10.7-11.2c1.6,2.6-2.6,8.2-3.6,10.6
					c-0.8,1.7-1.5,3.4-2.2,5.1c-1.7,4.1-3.2,8.2-4.4,12.5c-0.6,2.1-0.5,5.4-1.5,7.3C46.4,64.9,44.8,66.1,44.3,64.2z"/>
				<path class="st1" d="M57.9,26.6c0.5,0.2,1,0.7,1.4,1.4c1.5,2.5-0.8,6.5-2.5,9.5c-0.5,0.8-0.9,1.5-1.1,2c-0.8,1.8-1.5,3.5-2.2,5
					c-1.9,4.7-3.3,8.6-4.3,12.4c-0.2,0.8-0.3,1.8-0.5,2.8c-0.2,1.7-0.4,3.4-1.1,4.7c-0.4,0.8-1.4,1.9-2.6,1.8
					c-0.5,0-1.3-0.3-1.7-1.7l0,0c-1.8-6.9-0.6-15.3,3.6-25.1c2.5-5.8,6.2-12.8,9.5-13C56.9,26.3,57.4,26.3,57.9,26.6z M45.3,64.3
					c0.2,0,0.6-0.4,0.7-0.7c0.5-1,0.7-2.6,0.9-4.1c0.1-1.1,0.3-2.1,0.5-3.1c1-3.9,2.4-7.9,4.4-12.6c0.7-1.6,1.4-3.2,2.2-5.1
					c0.3-0.6,0.7-1.3,1.2-2.2c1.3-2.2,3.4-6,2.5-7.5c-0.5-0.8-0.9-0.8-1-0.8c-1.7,0.1-5,4.9-8,11.9c-4.1,9.4-5.3,17.4-3.5,23.8
					C45.2,64.1,45.2,64.2,45.3,64.3z"/>
			</g>
			<g>
				<path class="st0" d="M51.9,94.4c-3.2-3.4-3.4-9.2-3.4-13.6c0-5.1,0.6-10.3,1.6-15.2c2.3-11.4,7.3-22.7,12.8-32.8
					c1.3-2.3,2.1-4.2,3.4-6.5c0.9-1.5,2.8-4.7,4.9-4.3c4.3,0.7-2.3,10.6-3.2,12.6c-4.8,10-9.5,20.1-12.2,31
					c-1.4,5.9-1.8,11.7-2.3,17.7c-0.2,2.8-0.2,5.6,0.1,8.3C53.6,91.9,54.1,96.8,51.9,94.4z"/>
				<path class="st1" d="M72.1,21.3c0.6,0.3,0.9,0.8,1.1,1.2c1.1,2.4-1.2,6.8-3.7,11.1c-0.3,0.6-0.6,1.1-0.8,1.4
					c-4.9,10.1-9.5,20.1-12.1,30.8c-1.3,5.5-1.8,10.9-2.2,16.6l-0.1,0.9c-0.2,3-0.2,5.7,0.1,8.1c0.1,0.9,0.4,3.7-1,4.4
					c-0.7,0.4-1.5,0.1-2.3-0.8l0,0c-3.2-3.5-3.7-8.9-3.7-14.3c0-5,0.5-10.3,1.6-15.4c2-10.1,6.4-21.2,12.9-33c0.6-1,1-2,1.5-2.9
					c0.6-1.1,1.2-2.3,1.9-3.6c0.9-1.6,3-5.3,5.9-4.8C71.6,21.1,71.9,21.2,72.1,21.3z M52.7,93.9c0.1-0.6,0.1-1.6,0-2.2
					c-0.4-2.6-0.4-5.4-0.2-8.6l0.1-0.9c0.4-5.8,0.9-11.3,2.3-16.9c2.7-10.9,7.3-21,12.3-31.2c0.2-0.3,0.5-0.9,0.8-1.5
					c1.2-2.1,4.4-7.6,3.6-9.3c0-0.1-0.1-0.3-0.6-0.3c-1.6-0.3-3.4,2.8-4,3.9c-0.7,1.3-1.3,2.3-1.9,3.5c-0.5,0.9-0.9,1.9-1.5,3
					c-6.4,11.6-10.7,22.6-12.7,32.5c-1,5-1.5,10.2-1.5,15c0,4.7,0.4,10,3.1,13C52.6,93.8,52.6,93.9,52.7,93.9z"/>
			</g>
			<g>
				<path class="st0" d="M46,80.1c-2.1-4.7-1.7-8.3-0.5-13.2c1.4-5.7,2.9-11.3,4.9-16.8c2-5.4,4.3-10.8,6.5-16.1
					c0.8-1.9,4.9-12.3,7.7-6.3c1.1,2.4-2.9,7.1-3.9,9c-2.6,5.2-5.2,10.6-7.2,16.1c-2,5.5-3.5,11.3-4.5,17c-0.5,2.7-1.1,5.5-1,8.3
					C48.3,81.9,47.1,81.6,46,80.1z"/>
				<path class="st1" d="M63.8,25.2c0.7,0.3,1.3,1,1.8,2.1c1.1,2.3-1.1,5.5-2.8,8c-0.5,0.7-0.9,1.4-1.1,1.8
					c-2.7,5.3-5.2,10.5-7.2,16C52.5,58.6,51,64.4,50,70c-0.1,0.4-0.1,0.7-0.2,1.1c-0.4,2.3-0.9,4.6-0.7,6.9c0.1,1.6,0,3.5-1.2,3.9
					c-0.6,0.2-1.5,0.2-2.5-1.3l-0.1-0.2c-2.1-4.8-1.8-8.4-0.5-13.8c1.6-6.6,3.2-11.9,5-16.9c1.7-4.7,3.7-9.3,5.6-13.8l1-2.5
					c2.4-5.7,4.5-8.4,6.5-8.5C63.1,25,63.4,25.1,63.8,25.2z M47.1,80c0.1-0.3,0.1-0.8,0.1-1.8c-0.1-2.5,0.3-5,0.8-7.4
					c0.1-0.4,0.1-0.7,0.2-1.1c1-5.7,2.6-11.7,4.6-17.2c2-5.6,4.6-10.8,7.3-16.2c0.3-0.5,0.7-1.2,1.3-2c1.2-1.8,3.2-4.8,2.6-6.1
					c-0.2-0.5-0.7-1.3-1.2-1.3c-0.4,0-2,0.6-4.8,7.3l-1,2.5c-1.9,4.5-3.9,9.1-5.5,13.8c-1.8,4.9-3.3,10.2-4.9,16.6
					c-1.2,5-1.5,8.2,0.4,12.5C46.9,79.8,47,79.9,47.1,80z"/>
			</g>
		</g>
		<g>
			<g>
				<path class="st0" d="M64.2,103.2c1.2,7.5,7.8,14.4,13.3,18.9c1.6,1.3,3.3,2.5,5.1,3.5c0.9,0.5,4,1.4,3.9,2.8
					c-0.3,2.8-8.3-1.8-9.7-2.6c-6.8-3.8-13.5-9.7-17.4-16.8c-1.2-2.2-3.1-6-0.9-8.2C60.5,98.6,64,100.2,64.2,103.2z"/>
				<path class="st1" d="M86.6,130.1c0,0-0.1,0.1-0.1,0.1c-1.1,0.6-3.2,0.7-10.2-3.2l-0.2-0.1c-7.9-4.4-14.2-10.6-17.9-17.3
					c-1.1-2-3.7-6.7-0.7-9.7c1.3-1.3,3.1-1.7,4.8-1.1c1.7,0.7,3,2.3,3.2,4.2c1.3,7.7,8.6,14.6,12.8,18c1.6,1.3,3.3,2.4,4.9,3.4
					c0.1,0.1,0.5,0.2,0.8,0.4c1.6,0.7,3.9,1.6,3.7,3.7C87.5,129.2,87.2,129.8,86.6,130.1z M59.6,101.3c-0.1,0.1-0.3,0.2-0.4,0.3
					c-1.4,1.5-0.2,4.2,1.1,6.6c3.4,6.2,9.6,12.2,17,16.3l0.2,0.1c4.1,2.3,6.2,3,7.1,3.2c-0.5-0.3-1.2-0.6-1.6-0.7
					c-0.4-0.2-0.8-0.3-1.1-0.5c-1.7-1-3.5-2.2-5.2-3.6c-4.5-3.7-12.4-11.1-13.8-19.7l0-0.1c-0.1-1-0.7-1.8-1.6-2.1
					C61.1,101.1,60.4,100.9,59.6,101.3z"/>
			</g>
			<g>
				<path class="st0" d="M73.9,108c1.2,4.3,5.2,8.3,8.2,11.3c3.2,3.3,6.8,6.3,10.8,8.6c2,1.1,4,2.1,6.1,2.9c1.4,0.5,4.4,0.8,5.4,1.7
					c3.6,3-6.7,1.9-8,1.6c-8.9-2.2-17.3-8.4-23.5-15.3c-2.1-2.3-5.6-6.1-5.7-9.4C67,105.1,72.7,103.9,73.9,108z"/>
				<path class="st1" d="M105.5,135c-2.4,1.6-9.3,0.3-9.4,0.2c-8.3-2.1-17.1-7.8-24.1-15.7l-0.4-0.4c-2.2-2.5-5.5-6.2-5.7-9.8
					c-0.1-3,1.9-4.7,4-5.1c2.4-0.4,4.5,1,5.1,3.3l0,0c1.1,3.9,5,7.8,7.8,10.7l0,0c3.5,3.5,6.9,6.3,10.5,8.4c1.8,1.1,3.8,2,5.9,2.8
					c0.4,0.2,1.1,0.3,1.8,0.5c1.5,0.3,3,0.7,3.9,1.4c1.4,1.2,1.4,2.2,1.1,2.8C106.1,134.6,105.8,134.8,105.5,135z M69.4,107.1
					c-0.6,0.4-1.1,1.1-1,2.1c0.1,2.7,3.2,6.2,5.1,8.2l0.4,0.4c6.7,7.6,15.1,13,22.9,15c1,0.3,4.5,0.5,6.4,0.4
					c-0.7-0.3-1.7-0.5-2.4-0.6c-0.8-0.2-1.6-0.3-2.2-0.6c-2.2-0.9-4.4-1.9-6.3-3c-3.8-2.2-7.4-5.1-11-8.8l0,0
					c-3-3.1-7.2-7.3-8.4-11.8l0,0c-0.4-1.4-1.5-1.7-2.4-1.5C70,106.8,69.7,106.9,69.4,107.1z"/>
			</g>
			<g>
				<path class="st0" d="M81,110.5c1.1,4.1,7,7.7,10,9.9c3.8,2.7,7.9,5,12.2,6.8c2.1,0.9,4.3,1.7,6.5,2.4c1.2,0.4,4.2,0.7,5.1,1.4
					c3.6,3.1-7.7,2.1-9.1,1.8c-8.7-1.7-17.6-6-24.5-11.8c-2.5-2.1-6.7-5.7-6.9-9.4C74.1,107.5,80,106.3,81,110.5z"/>
				<path class="st1" d="M115.9,133.6c-2.6,1.7-10.3,0.5-10.4,0.5c-8.8-1.7-17.9-6.1-25.1-12c-2.5-2.1-7.2-6-7.4-10.3
					c-0.1-3,2-4.7,4-5.1c2.4-0.4,4.5,1,5.1,3.4l0,0c0.8,3.2,5.4,6.3,8.5,8.4c0.4,0.3,0.7,0.5,1.1,0.7c3.8,2.7,7.8,4.9,12,6.7
					c2,0.8,4.1,1.6,6.4,2.4c0.3,0.1,0.9,0.2,1.5,0.3c1.8,0.4,3.2,0.7,4,1.3c1.3,1.1,1.3,2.2,1,2.8
					C116.5,133.2,116.3,133.4,115.9,133.6z M76.6,109.6c-0.6,0.4-1.1,1.1-1,2.1c0.2,3.2,4.4,6.8,6.5,8.5c6.9,5.7,15.6,9.9,24,11.5
					c1.4,0.3,5.8,0.5,7.7,0.2c-0.7-0.2-1.9-0.5-2.5-0.6c-0.7-0.1-1.3-0.3-1.8-0.4c-2.4-0.8-4.6-1.6-6.6-2.4
					c-4.3-1.8-8.5-4.2-12.4-6.9c-0.3-0.2-0.7-0.5-1.1-0.7c-3.4-2.3-8.4-5.8-9.5-9.9c-0.4-1.4-1.5-1.7-2.4-1.6
					C77.2,109.3,76.8,109.4,76.6,109.6z"/>
			</g>
			<g>
				<path class="st0" d="M88.2,108.9c5.6,7.2,14.7,11.9,22.9,15.1c2.2,0.9,4.4,1.6,6.7,2.3c1.9,0.6,5.2,0.8,6.9,1.9
					c1.7,1,1.6,2.7-0.2,3.4c-1.8,0.7-5.1,0.1-7-0.1c-9.6-1.2-19.4-5.7-27.4-11.4c-2.7-1.9-6.1-4.4-7.7-7.5
					C80.2,108.5,85.6,104.9,88.2,108.9z"/>
				<path class="st1" d="M125.6,132.4c-0.2,0.1-0.5,0.3-0.7,0.4c-1.9,0.8-4.7,0.4-6.8,0.1c-0.3,0-0.6-0.1-0.8-0.1
					c-9.2-1.1-19.1-5.3-27.9-11.6c-2.5-1.8-6.3-4.5-8.1-7.9c-1.5-2.8-0.3-5.5,1.6-6.7c0,0,0,0,0,0c1.8-1.1,4.5-1.1,6.2,1.5
					c4.4,5.6,11.7,10.4,22.3,14.7c1.9,0.8,4.1,1.5,6.6,2.3c0.6,0.2,1.5,0.4,2.3,0.5c1.7,0.3,3.5,0.7,4.8,1.5c1.2,0.7,1.9,1.9,1.8,3
					C127,131.1,126.5,131.9,125.6,132.4z M84.2,108.8C84.2,108.8,84.2,108.8,84.2,108.8c-0.9,0.6-1.5,1.8-0.7,3.3
					c1.5,2.9,5,5.4,7.3,7c8.5,6.1,18,10,26.8,11.1c0.3,0,0.6,0.1,0.9,0.1c1.7,0.2,4.3,0.6,5.5,0.1c0.5-0.2,0.6-0.4,0.6-0.5
					c0-0.1-0.1-0.4-0.6-0.6c-0.9-0.6-2.6-0.9-4.1-1.2c-0.9-0.2-1.8-0.4-2.6-0.6c-2.6-0.8-4.8-1.6-6.8-2.4
					c-11-4.4-18.7-9.5-23.4-15.5l-0.1-0.1C86.2,108.2,85,108.3,84.2,108.8z"/>
			</g>
			<g>
				<path class="st0" d="M96.5,107.5c6.3,7.5,16.3,12.6,25.7,14.4c3,0.6,7.3,0,10.1,1.4c1.9,1,2,3.1,0.1,4.2c-1.7,1-4.7,1-6.6,0.8
					c-9.4-0.8-19.4-4.9-27.3-10.1c-2.5-1.6-6.5-4.2-7.9-7C88.8,107.2,93.9,104.1,96.5,107.5z"/>
				<path class="st1" d="M133.1,128.6c0,0-0.1,0.1-0.1,0.1c-1.5,0.9-4,1.2-7.3,0.9c-9-0.8-19.2-4.6-27.9-10.3l-0.4-0.3
					c-2.6-1.7-6.5-4.3-7.9-7.3c-1.1-2.3-0.4-4.9,1.7-6.2c0,0,0,0,0,0c1.8-1.1,4.5-1.1,6.2,1.2c5.8,6.8,15.4,12.2,25,14
					c1,0.2,2.2,0.2,3.5,0.3c2.4,0.1,4.9,0.2,6.9,1.3c1.3,0.7,2.1,1.9,2.2,3.2C135,126.7,134.3,127.9,133.1,128.6z M92.5,107.7
					C92.5,107.7,92.5,107.7,92.5,107.7c-0.8,0.5-1.4,1.6-0.8,3c1.1,2.3,4.6,4.7,7,6.2l0.4,0.3c8.4,5.5,18.1,9.2,26.8,9.9
					c2.7,0.2,4.8,0,5.9-0.6c0.5-0.3,0.8-0.7,0.8-1c0-0.3-0.3-0.7-0.8-1c-1.6-0.8-3.8-0.9-6-1c-1.4-0.1-2.6-0.1-3.8-0.3
					c-10.1-1.9-20.3-7.6-26.4-14.8l-0.1-0.1C94.6,107.1,93.4,107.2,92.5,107.7z"/>
			</g>
			<g>
				<path class="st0" d="M105,106.9c6.8,7.7,17,11,26.9,11.2c1.3,0,2.7,0,4-0.1c1.7-0.2,4.7-1.7,6.3-0.7c4.3,2.8-4.1,5.1-5.8,5.5
					c-9.7,2.3-20.3,0.3-28.9-4.9c-2.5-1.5-5-3.3-7-5.6C96.9,108.1,101.7,102.6,105,106.9z"/>
				<path class="st1" d="M142.5,121.7c-1.7,1.1-4.2,1.8-6,2.2c-9.8,2.3-20.6,0.5-29.8-5c-3.1-1.9-5.5-3.8-7.3-5.9
					c-1.5-1.7-1.9-3.8-1.3-5.7c0.6-1.7,1.9-2.9,3.4-3.2c1.5-0.3,3.1,0.4,4.3,1.9c6,6.7,15.2,10.5,25.9,10.7c1.6,0,2.7,0,3.8-0.1
					c0.4,0,1-0.2,1.7-0.4c1.8-0.5,3.8-1.1,5.3-0.1c1.7,1.1,1.9,2.3,1.8,3.1C144.4,120.2,143.6,121.1,142.5,121.7z M101.5,106.9
					c-0.4,0.3-0.8,0.7-1,1.3c-0.3,1-0.1,2.2,0.8,3.2c1.6,1.9,3.8,3.7,6.7,5.4c8.6,5.2,18.8,6.9,28,4.8c3.2-0.8,5.7-2,6.1-2.6
					c-0.1-0.1-0.2-0.3-0.6-0.5c-0.6-0.4-2.2,0-3.4,0.4c-0.7,0.2-1.4,0.4-2.1,0.5c-1.2,0.1-2.5,0.2-4.1,0.2
					c-11.4-0.2-21.3-4.3-27.7-11.6l-0.1-0.1c-0.4-0.6-1.1-1.2-2-1.1C101.9,106.7,101.7,106.8,101.5,106.9z"/>
			</g>
			<g>
				<path class="st0" d="M114.2,104.1c6.7,7.3,17.6,8.3,26.8,7.7c2.1-0.1,4.1-0.4,6.1-0.8c1.6-0.3,4.5-1.6,5.1,0.9
					c0.8,3.6-7.7,4.7-10.1,5.2c-8.9,2-19.2,1.5-27.5-2.7c-2.7-1.3-6.6-3.6-7.6-6.7C105.4,102.9,111.4,100.7,114.2,104.1z"/>
				<path class="st1" d="M151.3,115.7c-1.9,1.2-4.9,1.9-7.9,2.5c-0.4,0.1-0.8,0.2-1.1,0.2c-9.9,2.2-20.4,1.1-28.3-2.8
					c-3-1.5-7.1-3.9-8.2-7.4c-0.8-2.6,0-5,2.1-6.2c2-1.2,5.2-1.1,7.2,1.3c5.1,5.6,13.8,8,25.8,7.3c2.3-0.1,4.2-0.4,5.9-0.8
					c0.2,0,0.5-0.1,0.7-0.2c1.3-0.4,3-0.8,4.4,0c0.5,0.3,1.1,0.9,1.4,2.1c0.2,0.9,0.1,1.8-0.4,2.5
					C152.6,114.7,152,115.2,151.3,115.7z M109.1,104.2c-0.6,0.4-1.5,1.3-0.9,3.2c0.9,2.9,5.5,5.2,7,5.9c7.4,3.7,17.3,4.6,26.7,2.6
					c0.3-0.1,0.7-0.1,1.2-0.2c2.1-0.4,6.9-1.3,7.9-2.9c0.1-0.2,0.1-0.3,0.1-0.6c-0.1-0.4-0.2-0.4-0.2-0.5c-0.5-0.3-1.7,0.1-2.5,0.3
					c-0.3,0.1-0.6,0.2-0.9,0.2c-1.9,0.4-3.9,0.7-6.3,0.8c-13,0.8-22-1.8-27.7-8.1l0,0C112.1,103.5,110.3,103.5,109.1,104.2
					C109.1,104.2,109.1,104.2,109.1,104.2z"/>
			</g>
			<g>
				<path class="st0" d="M122,100c7.1,5.3,17,4.5,25.2,3.6c2.6-0.3,9.9-2.1,11.9,0.4c2.9,3.7-5.9,5.6-7.8,6.1
					c-8.3,2.1-18.2,3.1-26.5,0.4c-3-0.9-8.8-2.8-9.1-6.7C115.3,100.2,119.2,98.1,122,100z"/>
				<path class="st1" d="M158.6,108.8c-1.8,1.1-4.3,1.9-6.7,2.5l-0.3,0.1c-7.2,1.8-17.8,3.4-27.2,0.4c-3.1-1-9.6-3-10-7.9
					c-0.2-2.1,0.8-4.1,2.6-5.1c1.8-1.1,4-1,5.8,0.2l0,0c6.5,4.8,15.6,4.3,24.4,3.3c0.4,0,1-0.1,1.7-0.3c4.8-0.8,9.3-1.3,11.2,1.1
					c1,1.3,0.9,2.4,0.7,3.2C160.4,107.4,159.6,108.1,158.6,108.8z M118.1,101c-0.9,0.6-1.4,1.6-1.3,2.7c0.2,3.1,5.8,4.9,8.2,5.6
					c8.8,2.8,19,1.3,25.9-0.5l0.3-0.1c5.9-1.5,6.9-2.7,7.1-3.2c0-0.1,0.1-0.3-0.3-0.7c-1.2-1.5-6.6-0.6-9-0.2
					c-0.7,0.1-1.3,0.2-1.8,0.3c-9.2,1-18.8,1.6-26-3.8C120.2,100.3,118.9,100.5,118.1,101C118.1,101,118.1,101,118.1,101z"/>
			</g>
			<g>
				<path class="st0" d="M130.8,93.7c3.8,2.7,9.6,2.9,14,3c4.5,0.2,9.1,0,13.5-0.9c2-0.4,7.2-2.6,6.8,1.7c-0.3,3.1-5.5,4.7-7.9,5.4
					c-7.3,2.3-15.9,2.7-23.3,1c-3.1-0.7-8.8-2.3-9.6-6.2C123.5,94,127.9,91.5,130.8,93.7z"/>
				<path class="st1" d="M163.3,101.9c-1.9,1.2-4.2,1.9-5.7,2.4l-0.1,0c-7.7,2.4-16.4,2.8-24,1c-2.4-0.5-9.5-2.2-10.5-7.2
					c-0.4-2.2,0.4-4.4,2.3-5.6c1.9-1.3,4.3-1.2,6.1,0.2c3.5,2.5,8.9,2.7,13.2,2.8l0.1,0c5.3,0.2,9.5-0.1,13.2-0.8
					c0.3-0.1,0.6-0.2,1-0.3c1.9-0.5,4.6-1.2,6.2,0.2c0.8,0.7,1.2,1.8,1,3.2C166.2,99.6,164.9,100.9,163.3,101.9z M126.7,94.6
					C126.7,94.6,126.7,94.6,126.7,94.6c-1,0.7-1.5,1.8-1.2,3c0.4,2.2,3.3,4,8.6,5.2c7.1,1.7,15.4,1.3,22.7-1l0.1,0
					c1.8-0.6,6.7-2.1,6.9-4.3c0-0.2,0-0.8-0.2-1c-0.6-0.5-2.9,0.1-4,0.4c-0.5,0.1-0.9,0.2-1.2,0.3c-3.9,0.8-8.3,1.1-13.8,0.9l-0.1,0
					c-4.7-0.2-10.5-0.4-14.5-3.3l0,0C128.9,93.8,127.5,94.1,126.7,94.6z"/>
			</g>
			<g>
				<path class="st0" d="M136.1,85c7.2,4.1,15.8,1.4,23.6,1.6c2.7,0.1,8.1-0.1,7.5,4.3c-0.5,3.5-5.7,4-8.3,4.7
					c-7.3,1.8-16.1,3.2-23.1-0.3c-2.5-1.3-6.4-3.8-6.1-7.2C130.1,84.9,133.6,83.5,136.1,85z"/>
				<path class="st1" d="M166.1,94.7c-1.7,1.1-3.9,1.5-5.6,1.9c-0.4,0.1-0.8,0.2-1.2,0.3c-7.2,1.8-16.5,3.3-23.9-0.4
					c-6-3-7-6.3-6.8-8.4c0.2-1.9,1.2-3.4,2.8-4.3c1.7-0.9,3.7-0.8,5.3,0.2c4.7,2.7,10.4,2.2,15.8,1.8c2.4-0.2,4.8-0.4,7.2-0.3l0.5,0
					c2.3,0,5.7,0.1,7.4,2.2c0.8,0.9,1.1,2.2,0.9,3.6C168.3,92.8,167.3,93.9,166.1,94.7z M132.3,86.1c-0.5,0.3-1.2,1-1.3,2.1
					c-0.3,2.6,3.3,4.8,5.4,5.9c6.7,3.4,15.4,1.9,22.3,0.2c0.4-0.1,0.8-0.2,1.2-0.3c2.3-0.5,5.8-1.2,6.1-3.3c0.1-0.9-0.1-1.3-0.3-1.6
					c-1-1.2-3.9-1.2-5.6-1.3l-0.5,0c-2.2-0.1-4.5,0.1-7,0.3c-5.8,0.5-11.8,1-17.2-2.1l0,0c-0.9-0.6-2-0.6-3-0.1
					C132.5,86,132.4,86.1,132.3,86.1z"/>
			</g>
			<g>
				<path class="st0" d="M136.7,79c7.4,3.5,15.9,0.3,23.6-0.1c2.7-0.1,8.1-0.7,7.8,3.8c-0.2,3.5-5.4,4.4-7.9,5.3
					c-7.1,2.3-15.8,4.4-23,1.3c-2.6-1.1-6.7-3.3-6.6-6.7C130.7,79.3,134.1,77.6,136.7,79z"/>
				<path class="st1" d="M166.7,86.8c-1.5,1-3.5,1.5-5,2c-0.4,0.1-0.8,0.2-1.1,0.3c-7.1,2.3-16.2,4.5-23.9,1.3
					c-6.2-2.6-7.4-5.7-7.3-7.9c0.1-1.9,1-3.5,2.5-4.5c1.6-1,3.6-1.1,5.3-0.2c4.9,2.3,10.5,1.5,15.9,0.6c2.4-0.4,4.8-0.7,7.2-0.9
					l0.5,0c2.3-0.1,5.7-0.3,7.5,1.6c0.8,0.9,1.2,2.1,1.1,3.5C169.2,84.6,168.1,85.9,166.7,86.8z M133.1,80.3c-0.5,0.3-1.3,1-1.3,2.4
					c-0.1,2.6,3.6,4.6,5.8,5.5c6.9,2.9,15.5,0.8,22.2-1.4c0.4-0.1,0.8-0.2,1.2-0.4c2.3-0.7,5.7-1.6,5.9-3.8c0.1-0.9-0.2-1.3-0.4-1.5
					c-1-1.1-3.9-1-5.6-0.9l-0.5,0c-2.2,0.1-4.5,0.5-6.9,0.8c-5.8,0.9-11.7,1.8-17.3-0.8l0,0C135.2,79.6,134.1,79.7,133.1,80.3
					C133.2,80.2,133.2,80.3,133.1,80.3z"/>
			</g>
		</g>
		<g>
			<g>
				<path class="st0" d="M80.1,6.1c4.4-2,9.9,0.7,13.9,2.7c4.5,2.2,6.9,3.8,11,6.7c6.9,4.9,13.3,11,19,17.2
					c6.7,7.3,12.5,15.5,17.9,23.9c1.4,2.2,3.7,5.1,4,7.8c0.4,4.9-6.7,5.6-6.9,0.7c0,0.2,0,0.4,0.1,0.6c-0.4-3.3-3.6-7.2-5.3-9.9
					c-2.5-4-5.1-7.9-8-11.6c-4.9-6.4-10.7-12-16.5-17.4c-4.5-4.1-9.2-8-14.3-11.2c-3.6-2.2-7-4.1-11-5.3c-1.4-0.4-3.4-0.5-4.7-1
					C77.9,8.7,78.4,6.9,80.1,6.1z"/>
				<path class="st1" d="M144.8,68.7c-1.4,0.9-3.1,1-4.5,0.2c-1.3-0.7-2.1-2-2.2-3.6c-0.5-2.2-2.3-4.9-3.7-7c-0.5-0.7-0.9-1.4-1.3-2
					c-2.8-4.6-5.4-8.2-7.9-11.5c-5.2-6.6-11.2-12.4-16.4-17.2c-5.2-4.8-9.7-8.4-14.2-11.1c-4.1-2.6-7.3-4.1-10.8-5.2
					c-0.6-0.2-1.2-0.3-2-0.4c-1-0.1-2-0.3-2.8-0.7c-0.8-0.3-1.3-1.1-1.3-2c0-1.2,0.9-2.4,2.2-3l0,0C84.5,3.1,90.2,5.9,94.4,8
					c4.7,2.3,7.1,3.9,11.1,6.8c6.2,4.5,12.7,10.3,19.2,17.3c5.9,6.3,11.6,14,18,24.1c0.3,0.4,0.6,0.9,0.9,1.3c1.3,2,3,4.5,3.2,6.9
					c0.2,1.7-0.5,3.3-1.8,4.2C144.9,68.6,144.8,68.7,144.8,68.7z M139.9,65.6c0.1,0.7,0.5,1.3,1.2,1.6c0.9,0.4,2,0.4,2.9-0.2
					c0.5-0.4,1.1-1.1,1-2.5c-0.2-1.9-1.7-4.2-2.9-6c-0.3-0.5-0.6-0.9-0.9-1.4c-6.3-10-12-17.5-17.8-23.8
					c-6.4-6.9-12.8-12.7-18.9-17.1c-3.9-2.8-6.3-4.3-10.9-6.6C89.7,7.8,84.5,5.2,80.5,7c-0.8,0.3-1.1,0.9-1.1,1.2
					c0,0.1,0,0.1,0.2,0.2c0.6,0.3,1.5,0.4,2.4,0.5c0.8,0.1,1.6,0.2,2.2,0.4c3.6,1.1,7,2.7,11.2,5.4c4.6,2.8,9.1,6.5,14.5,11.3
					c5.3,4.9,11.4,10.7,16.6,17.5c2.6,3.3,5.2,7,8,11.7c0.4,0.6,0.8,1.3,1.3,2C137.6,59.8,139.6,62.8,139.9,65.6L139.9,65.6z"/>
			</g>
			<g>
				<path class="st0" d="M71.9,10.9c3.7-3,11.7-0.7,15.3,1c5.6,2.6,10.9,6.2,15.9,9.9c10.6,7.9,18.8,17.5,26.4,28.3
					c3.3,4.7,7.9,10.1,9.7,15.7c0.8,2.4-1,4.4-3,2.2c-1.9-2.2-3.2-5.7-4.9-8.2c-7.7-11.5-16.4-22.6-27.5-30.5
					c-5.7-4.1-11.8-7.6-18.1-10.5c-2-0.9-3.9-1.7-5.9-2.5C78.3,15.5,68,14.6,71.9,10.9z"/>
				<path class="st1" d="M139.1,69.4C139.1,69.4,139.1,69.4,139.1,69.4c-0.9,0.5-2.2,0.6-3.5-0.9c-1.2-1.4-2.2-3.2-3.1-5
					c-0.6-1.2-1.2-2.3-1.9-3.3c-9.5-14.2-17.9-23.5-27.3-30.3c-5.7-4.1-11.8-7.6-17.9-10.4c-1.8-0.8-3.8-1.7-5.9-2.5
					c-1.1-0.5-2.2-0.8-3.4-1.1c-0.4-0.1-0.8-0.2-1.2-0.4c-0.1,0-0.3,0-0.4,0c-0.2,0-0.4,0-0.7-0.1c-1.3,0.5-2.8-0.1-3.7-1.2
					c-1-1.3-1.1-2.7,0.8-4.2l0,0c4.6-3.7,14.7,0,16.7,1c4.8,2.2,9.9,5.4,16.1,10c9.5,7.1,17.7,15.9,26.6,28.5c0.7,1,1.4,2,2.2,3
					c2.9,3.9,6.2,8.4,7.7,12.9C140.7,67,140.3,68.7,139.1,69.4z M75.4,13.7c0.4,0.1,0.8,0.2,1.2,0.4c1.2,0.3,2.4,0.7,3.6,1.2
					c2.1,0.9,4.1,1.7,6,2.6c6.3,2.8,12.4,6.4,18.2,10.6c9.6,6.9,18.2,16.4,27.8,30.8c0.7,1.1,1.4,2.3,2,3.5c0.9,1.7,1.8,3.4,2.8,4.6
					c0.5,0.5,0.9,0.8,1.2,0.6c0,0,0,0,0,0c0.3-0.2,0.5-0.8,0.2-1.8c-1.4-4.2-4.6-8.6-7.4-12.4c-0.8-1-1.5-2-2.2-3
					c-8.8-12.5-16.8-21.1-26.2-28.1c-6.1-4.5-11.1-7.6-15.7-9.8c-3.8-1.8-11.8-4.4-14.9-1.9c-1.1,1-0.6,1.9-0.4,2.2
					c0.4,0.5,1.2,1,1.9,0.4C73.4,13.4,75.1,13.6,75.4,13.7z"/>
			</g>
			<g>
				<path class="st0" d="M132.3,71.8c-7.1-15.4-19.4-29.1-33.1-38.9c-8.8-6.3-17.7-10.4-27.9-13.2c-1.6-0.4-3.9-0.3-5.9-0.4
					c-3.8-0.1-0.6-3.8,2.3-4.6c4.4-1.3,7.9,0,12.3,1.6c13.2,4.8,25.9,12.9,35.9,23.4c6.2,6.6,11.8,13.6,16.9,21.2
					c1.6,2.4,6,7.5,5,10.6C136.9,74.2,133.5,74.3,132.3,71.8z"/>
				<path class="st1" d="M137,74c-0.5,0.3-1,0.5-1.6,0.5c-1.6,0.1-3.2-0.8-3.9-2.3l0,0c-6.7-14.5-18.3-28.2-32.8-38.5
					c-8.6-6.1-17.4-10.3-27.6-13c-1.2-0.3-2.8-0.3-4.4-0.3c-0.4,0-0.9,0-1.3,0c-2.1-0.1-2.5-1.1-2.6-1.8c-0.2-1.9,2.4-4.1,4.6-4.8
					c4.7-1.3,8.4,0,12.7,1.6l0.1,0c13.5,4.9,26.3,13.3,36.2,23.7c6,6.3,11.6,13.3,17,21.3c0.3,0.4,0.6,0.8,0.9,1.3
					c2.2,3,5.1,7.1,4.2,10.1C138.3,72.8,137.7,73.6,137,74z M133.1,71.4c0.5,1,1.5,1.3,2.1,1.3c0.4,0,1.3-0.2,1.6-1.4
					c0.6-2.1-2.3-6.2-3.9-8.4c-0.4-0.5-0.7-1-1-1.4c-5.4-8-10.9-14.8-16.8-21.1C105.4,30.3,92.8,22,79.6,17.2l-0.1,0
					c-4.2-1.5-7.5-2.7-11.7-1.6c-1.8,0.5-3.2,2.1-3.3,2.6c0.1,0,0.3,0.1,0.8,0.1c0.4,0,0.8,0,1.3,0c1.7,0,3.4,0,4.8,0.4
					c10.5,2.8,19.5,7,28.2,13.3C114.4,42.6,126.3,56.6,133.1,71.4z"/>
			</g>
			<g>
				<path class="st0" d="M53,27.2c3.5-4.9,13.2-2.5,17.9-1.4c6.9,1.5,13.6,4.1,19.9,7.5c12.7,6.7,23,18,30.9,30.3
					c2,3.1,3.8,6.3,5.4,9.6c1.1,2.4,4.3,7.5,3.4,10.1c-1.2,3.7-4.2,0.8-5-1.2c-1.5-3.8-3.2-7.4-5.2-11
					c-7.9-13.5-18.9-25.8-32.4-33.1c-6.9-3.7-14.5-6.8-22.2-7.9c-2.6-0.4-5.3-0.6-8-0.5C56.5,29.6,50.6,30.7,53,27.2z"/>
				<path class="st1" d="M130,85.6c-0.4,0.3-0.8,0.3-1.1,0.4c-1.9,0.1-3.5-2.1-4.2-3.6c-1.7-4.2-3.3-7.7-5.2-10.8
					c-5.9-10.3-16.3-24.3-32.1-32.7C79.6,34.6,72.3,32,65.6,31c-2.8-0.4-5.5-0.6-7.8-0.5c-0.1,0-0.3,0-0.6,0
					c-2.3,0.2-4.7,0.3-5.4-1.1c-0.4-0.8-0.2-1.7,0.5-2.8l0,0c3.7-5.2,13.1-3.1,18.1-2l0.7,0.2c6.7,1.5,13.4,4,20.1,7.6
					c11.6,6.2,22.1,16.5,31.2,30.6c2.2,3.3,3.9,6.5,5.5,9.7c0.2,0.4,0.5,0.9,0.8,1.5c1.5,2.9,3.5,6.8,2.7,9.3
					C131,84.6,130.5,85.2,130,85.6z M53.4,28.5c0.2,0.2,1,0.4,3.7,0.1c0.3,0,0.5,0,0.7-0.1c2.4-0.1,5.2,0,8.1,0.5
					c6.9,1,14.5,3.7,22.5,8c16.1,8.7,26.7,23,32.8,33.4c1.9,3.2,3.5,6.7,5.3,11.1c0.5,1.2,1.7,2.4,2.4,2.4c0.4,0,0.7-0.6,0.9-1.1
					c0.6-1.8-1.4-5.5-2.6-7.8c-0.3-0.6-0.6-1.1-0.8-1.6c-1.5-3.1-3.2-6.2-5.3-9.5c-9-13.8-19.2-23.9-30.6-29.9
					c-6.5-3.5-13.1-6-19.6-7.4L70,26.5c-4.6-1-13.3-3-16.2,1.2C53.5,28.2,53.4,28.5,53.4,28.5z"/>
			</g>
			<g>
				<path class="st0" d="M128,75.1c-11.4-24.9-34.1-46.5-61.1-50.3c-1.7-0.2-4.2,0-5.9-0.6c-3.6-1.3-0.6-3.9,1.5-4.4
					c4.6-1.1,9.4,0.1,13.8,1.6C89.6,25.9,102,33.8,112,44c6.2,6.4,11.6,13.6,16.7,21c1.6,2.3,5.9,6.6,4.9,9.7
					C132.7,77.4,129.2,77.5,128,75.1z"/>
				<path class="st1" d="M132.8,77.2c-0.5,0.3-1.1,0.5-1.8,0.6c-1.6,0.1-3.1-0.8-3.8-2.3l0,0C115,48.7,91.3,29.1,66.8,25.7
					c-0.6-0.1-1.3-0.1-2-0.1c-1.4-0.1-2.9-0.1-4.1-0.5c-2-0.7-2.3-1.8-2.3-2.6c0.1-1.8,2.4-3.2,3.9-3.6c4.8-1.2,9.7,0.1,14.2,1.6
					C90,25,102.5,32.9,112.6,43.3c5.4,5.6,10.8,12.3,16.8,21.1c0.3,0.5,0.8,1,1.3,1.7c2,2.5,4.7,6,3.8,8.9
					C134.1,76,133.5,76.7,132.8,77.2z M128.8,74.6c0.5,1,1.4,1.3,2.1,1.2c0.8-0.1,1.5-0.6,1.8-1.4c0.6-1.9-1.8-5-3.4-7.1
					c-0.5-0.6-1-1.2-1.3-1.8c-5.9-8.7-11.2-15.4-16.6-20.9c-10-10.2-22.2-18-35.3-22.4c-4.3-1.5-8.9-2.6-13.3-1.6
					c-1.2,0.3-2.4,1.3-2.4,1.8c0,0.1,0.3,0.4,1,0.7c0.9,0.3,2.3,0.4,3.5,0.4c0.8,0,1.5,0.1,2.2,0.1c12.9,1.8,25.7,7.8,36.8,17.4
					C114.3,50.2,123,61.7,128.8,74.6z"/>
			</g>
			<g>
				<path class="st0" d="M95.3,5.4c5.2-0.2,9.8,2.9,14.1,5.5c4.7,2.9,9.2,6.4,13.2,10.3c8.7,8.4,16.1,19.3,22.1,30
					c1.2,2.2,6.9,12.5-0.1,11.4c-1.8-0.3-2.2-1.8-2.8-3.3c-1-2.4-2.1-4.7-3.4-7c-5.8-10.4-13.5-19.4-22-27.4
					c-4.9-4.6-9.9-8.7-15.6-12.3c-2-1.3-5.9-3.4-8.2-4.5C91.2,7.5,92.7,5.5,95.3,5.4z"/>
				<path class="st1" d="M147.7,63.1c-0.8,0.5-1.8,0.6-3.1,0.4c-2.2-0.4-2.8-2-3.4-3.4l-0.2-0.4c-1-2.4-2.1-4.6-3.3-6.9
					c-5.3-9.5-12.7-18.6-21.8-27.2c-5.6-5.2-10.5-9.1-15.4-12.2c-2-1.2-5.8-3.4-8.1-4.4c-0.8-0.4-1.2-1.1-1.1-2
					c0.3-1.4,2-2.5,4.1-2.6l0,0C100.4,4.2,105,7,109,9.5l0.9,0.6c4.7,2.9,9.2,6.4,13.4,10.4c7.8,7.5,15.2,17.7,22.3,30.2
					c3.2,5.7,4.2,9.6,2.9,11.6C148.2,62.6,148,62.9,147.7,63.1z M93.1,7.3c2.3,1.1,6.2,3.2,8.3,4.5c5,3.2,10,7.1,15.7,12.4
					c9.3,8.7,16.8,17.9,22.2,27.6c1.3,2.3,2.4,4.7,3.4,7.1l0.2,0.4c0.5,1.4,0.9,2,2,2.2c0.8,0.1,1.7,0.2,2.1-0.4
					c0.6-0.9,0.2-3.9-3-9.5c-6.9-12.4-14.3-22.4-21.9-29.8c-4.1-3.9-8.5-7.4-13.1-10.2l-0.9-0.6c-4-2.5-8.2-5-12.7-4.8
					C94.1,6.4,93.3,7,93.1,7.3z"/>
			</g>
			<g>
				<path class="st0" d="M134.1,15.7c7.7,2.4,13.6,9.5,17.9,16.3c1.7,2.7,9.5,15.5,3.4,15.4c-3,0-5.3-6.7-6.6-8.9
					c-1-1.6-1.9-3.1-2.9-4.6c-2.4-3.7-4.9-7.3-7.8-10.6c-1.4-1.6-4.1-3.4-5.1-5.2C132.4,17.1,132.3,15.1,134.1,15.7z"/>
				<path class="st1" d="M157.3,47.8c-0.5,0.3-1.1,0.5-1.9,0.5c-2.8,0-4.8-4.2-6.3-7.3c-0.4-0.8-0.8-1.6-1.1-2c-1-1.7-2-3.2-2.9-4.6
					c-2.7-4.2-5.2-7.5-7.7-10.5c-0.5-0.6-1.2-1.2-2-1.9c-1.2-1.1-2.5-2.2-3.2-3.5c-0.4-0.8-0.8-2.3,0-3.2c0.3-0.4,1-1,2.3-0.6l0,0
					c6.5,2.1,12.7,7.7,18.4,16.7c3.4,5.3,7,12.3,5.4,15.4C158,47.2,157.7,47.5,157.3,47.8z M133.5,16.5c-0.1,0.2,0,0.7,0.2,1
					c0.6,1,1.7,2,2.8,3c0.8,0.7,1.6,1.4,2.2,2.1c2.6,3,5.1,6.4,7.8,10.7c0.9,1.4,1.9,3,2.9,4.7c0.3,0.6,0.7,1.3,1.1,2.2
					c1.1,2.3,3,6.2,4.7,6.2c0.9,0,1.1-0.4,1.2-0.5c0.8-1.6-1.3-7-5.4-13.4c-5.4-8.6-11.3-14-17.4-15.9
					C133.7,16.5,133.6,16.5,133.5,16.5z"/>
			</g>
			<g>
				<path class="st0" d="M105.6,6.2c4.4-1,9.3,1.9,12.8,4.3c4.1,2.7,8,6,11.5,9.5c8,8.1,14.5,18.6,19.7,28.8c1.2,2.4,2.3,4,3.4,6.5
					c0.8,1.6,2.3,5,0.9,6.7c-2.9,3.4-7.4-7.7-8.5-9.6c-5.5-9.6-11.2-19.2-18.6-27.4c-4-4.4-8.5-7.9-13.1-11.5
					c-2.1-1.7-4.4-3.2-6.8-4.3C106.7,9.1,102.5,6.9,105.6,6.2z"/>
				<path class="st1" d="M153.9,63.2c-0.6,0.4-1.1,0.4-1.5,0.3c-2.5-0.3-4.8-4.7-7-9.2c-0.3-0.6-0.6-1.2-0.7-1.4
					c-5.6-9.7-11.2-19.1-18.4-27.2c-3.7-4.1-7.8-7.4-12.2-10.8l-0.7-0.6c-2.3-1.8-4.5-3.2-6.7-4.2c-0.8-0.4-3.2-1.7-3.1-3.2
					c0.1-0.8,0.7-1.3,1.9-1.6l0,0c4.5-1,9.2,1.5,13.5,4.4c4,2.7,8,6,11.6,9.6c7.1,7.2,13.7,17,19.8,29c0.5,1.1,1,2,1.5,2.9
					c0.6,1.1,1.3,2.3,1.9,3.6c0.8,1.6,2.6,5.5,0.7,7.7C154.4,62.9,154.2,63.1,153.9,63.2z M105.6,7.2c0.4,0.4,1.2,0.9,1.8,1.2
					c2.3,1.1,4.6,2.5,7,4.4l0.7,0.6c4.4,3.5,8.6,6.8,12.5,11c7.4,8.2,13.1,17.7,18.7,27.5c0.2,0.3,0.5,0.9,0.8,1.6
					c1.1,2.2,3.9,7.9,5.6,8.2c0.1,0,0.3,0,0.6-0.3c1.1-1.3-0.4-4.4-1-5.6c-0.6-1.3-1.2-2.4-1.8-3.5c-0.5-0.9-1-1.8-1.6-2.9
					c-6-11.9-12.5-21.5-19.5-28.6c-3.5-3.6-7.4-6.8-11.3-9.4c-3.8-2.5-8.3-5-12.2-4.2C105.7,7.2,105.7,7.2,105.6,7.2z"/>
			</g>
			<g>
				<path class="st0" d="M120.4,8.7c4.9,0.7,7.6,3,10.9,6.6c3.9,4.2,7.6,8.6,10.9,13.3c3.3,4.6,6.4,9.5,9.5,14.3
					c1.1,1.7,7.3,10.9,1,10.2c-2.5-0.3-4.2-6.4-5.2-8.3c-2.8-5.1-5.7-10.3-9.1-15c-3.4-4.6-7.2-9.1-11.3-13.1
					c-1.9-1.9-3.9-3.9-6.2-5.3C117.6,9.7,118.6,8.9,120.4,8.7z"/>
				<path class="st1" d="M155.2,53.8c-0.6,0.4-1.5,0.6-2.6,0.4c-2.4-0.3-3.9-3.9-5-6.7c-0.3-0.8-0.6-1.6-0.9-2
					c-2.9-5.2-5.7-10.2-9.1-14.9c-3.3-4.6-7.2-9.1-11.2-13c-0.3-0.3-0.5-0.5-0.8-0.8c-1.6-1.6-3.3-3.2-5.2-4.4
					c-1.3-0.8-2.8-1.8-2.5-3.2c0.1-0.6,0.7-1.4,2.4-1.5l0.2,0c5,0.7,7.8,2.9,11.5,6.9c4.5,4.9,7.9,9.2,11,13.4
					c2.9,4,5.6,8.2,8.2,12.3l1.4,2.2c3.4,5.2,4.4,8.4,3.4,10.2C155.8,53.3,155.5,53.5,155.2,53.8z M119.8,9.8c0.2,0.2,0.6,0.6,1.4,1
					c2.1,1.2,3.9,3,5.6,4.6c0.3,0.3,0.5,0.5,0.8,0.8c4.1,4,8,8.5,11.4,13.2c3.4,4.7,6.3,9.8,9.2,15.1c0.3,0.5,0.6,1.3,1,2.2
					c0.8,2,2.2,5.4,3.5,5.6c0.5,0.1,1.4,0.1,1.7-0.3c0.2-0.4,0.6-2.1-3.4-8.2l-1.4-2.2c-2.6-4.1-5.3-8.3-8.2-12.3
					c-3-4.2-6.4-8.4-10.8-13.2c-3.4-3.8-5.8-5.7-10.3-6.3C120.1,9.7,119.9,9.7,119.8,9.8z"/>
			</g>
		</g>
		<g>
			<g>
				<path class="st0" d="M53.4,96.8c4.2,1.3,8,3.9,12,5.7c4.2,1.8,8.6,3.2,13.1,3.9c8.8,1.4,17.8,0.7,26.5-0.8
					c18.9-3.3,37-11,50.8-25.3c1.5-1.5,2.9-3.1,4.2-4.8c0.8-1.1,1.8-3.3,3.1-4c1.9-1.2,4.2-1.2,4,1.5c-0.3,3.5-3.1,6.6-5.2,9.1
					c-3.2,3.9-7,7.3-10.9,10.4c-14.9,11.7-32.9,17.4-51.3,19.6c-9.7,1.1-19.8,1-29.2-2.2c-4.1-1.4-8-3.3-11.8-5.6
					c-1.9-1.2-4-2.3-5.8-3.7c-0.4-0.3-1.2-0.8-1.4-1.4C51.1,97.7,52.1,96.4,53.4,96.8z"/>
				<path class="st1" d="M144.8,97.5c-12.5,8-27.6,13-45,15c-11.4,1.3-21.1,0.6-29.5-2.2c-3.8-1.3-7.7-3.1-11.9-5.6
					c-0.4-0.2-0.8-0.5-1.2-0.7c-1.6-0.9-3.2-1.9-4.7-3.1c-0.1-0.1-0.2-0.1-0.3-0.2c-0.5-0.4-1.2-0.9-1.4-1.5c-0.3-0.9,0-1.8,0.6-2.5
					c0.6-0.6,1.3-0.8,2.1-0.6l0,0c2.6,0.8,5.1,2.1,7.5,3.4c1.5,0.8,3,1.6,4.5,2.3c4.3,1.9,8.6,3.2,12.9,3.9c7.6,1.2,15.9,1,26.3-0.8
					c20.9-3.6,37.8-12,50.5-25.1c1.6-1.7,3-3.3,4.2-4.8c0.2-0.3,0.5-0.8,0.8-1.2c0.7-1.1,1.4-2.3,2.4-2.9c0,0,0,0,0,0
					c1.5-0.9,3-1.1,4-0.5c0.5,0.3,1.1,1.1,1,2.6c-0.3,3.4-2.8,6.5-4.9,8.9l-0.4,0.5c-3.1,3.7-6.8,7.2-11,10.5
					C149.2,94.5,147,96.1,144.8,97.5z M52.5,97.5c-0.1,0-0.1,0.1-0.2,0.1c-0.3,0.3-0.4,0.8-0.3,1.2c0.1,0.3,0.6,0.7,0.9,0.9
					c0.1,0.1,0.2,0.2,0.3,0.2c1.4,1.1,3,2.1,4.5,3c0.4,0.2,0.8,0.5,1.2,0.7c4.1,2.4,7.9,4.2,11.7,5.5c8.2,2.8,17.7,3.5,29,2.2
					c20.3-2.4,37.5-8.9,51-19.4c4.2-3.2,7.8-6.7,10.8-10.3l0.4-0.5c1.9-2.3,4.3-5.2,4.6-8.2c0.1-0.7-0.1-1.2-0.4-1.4
					c-0.5-0.4-1.6-0.2-2.7,0.5c0,0,0,0,0,0c-0.7,0.5-1.4,1.6-2,2.5c-0.3,0.5-0.6,0.9-0.9,1.3c-1.2,1.6-2.6,3.2-4.3,4.9
					c-12.8,13.2-30,21.8-51.1,25.4c-10.5,1.8-19,2.1-26.7,0.8c-4.4-0.7-8.8-2.1-13.2-4c-1.6-0.7-3.1-1.5-4.6-2.3
					c-2.4-1.3-4.8-2.5-7.3-3.3C52.9,97.3,52.7,97.3,52.5,97.5z"/>
			</g>
			<g>
				<path class="st0" d="M49.8,89.3c7.8,4.6,14.9,8.9,23.9,10.8c8.7,1.9,17.7,1.9,26.5,0.6c19.1-2.8,37.7-11.3,51.4-25.8
					c3.1-3.3,5.7-7,8.3-10.7c0.8-1.1,1.8-2.9,3.1-3.4c2.2-0.8,2.9,1,2.6,3c-0.6,3.6-3.3,7-5.4,9.8c-3,4.1-6.5,7.8-10.3,11.1
					c-14.4,12.6-33.2,19.9-51.8,21.9c-9.9,1.1-20.1,0.5-29.6-2.5c-5-1.6-9.7-3.8-14.1-6.7c-2-1.3-4.3-2.8-5.9-4.7
					c-0.6-0.8-1.5-1.5-1.1-2.6C47.8,89.2,48.9,88.8,49.8,89.3z"/>
				<path class="st1" d="M140.1,92.7c-12.1,7.7-26.6,12.8-41.9,14.5c-10.7,1.2-20.7,0.4-29.8-2.5c-5.2-1.6-10-3.9-14.2-6.7l-0.3-0.2
					c-1.9-1.3-4.2-2.8-5.7-4.6c-0.1-0.1-0.2-0.2-0.3-0.3c-0.6-0.7-1.4-1.6-1-2.9c0.2-0.6,0.7-1.1,1.3-1.4c0.6-0.3,1.3-0.2,1.9,0.1
					l0.6,0.3c7.5,4.4,14.5,8.6,23.1,10.5c8.2,1.8,17,2,26.3,0.6c20.1-3,38.3-12.1,51-25.6c2.9-3,5.2-6.3,7.6-9.7l0.6-0.9
					c0.1-0.2,0.3-0.4,0.4-0.6c0.8-1.2,1.8-2.6,3-3c1.3-0.5,2.1-0.1,2.6,0.3c0.8,0.7,1.1,1.9,0.8,3.4c-0.5,3.4-2.9,6.5-4.9,9.3
					l-0.6,0.8c-3,4-6.5,7.8-10.4,11.2C147.1,87.9,143.7,90.4,140.1,92.7z M48.4,89.9c-0.1,0.1-0.3,0.3-0.4,0.5
					c-0.2,0.6,0.1,0.9,0.7,1.6c0.1,0.1,0.2,0.2,0.3,0.3c1.4,1.7,3.6,3.1,5.4,4.4l0.3,0.2c4.2,2.8,8.9,5,13.9,6.6
					c9,2.8,18.8,3.6,29.4,2.5c19.6-2.2,37.9-9.9,51.4-21.8c3.8-3.4,7.3-7.1,10.2-11l0.6-0.8c2-2.6,4.2-5.6,4.7-8.7
					c0.2-1,0-1.8-0.4-2.2c-0.3-0.3-0.8-0.3-1.4-0.1c-0.9,0.3-1.8,1.6-2.4,2.6c-0.1,0.2-0.3,0.4-0.4,0.6l-0.6,0.9
					c-2.5,3.5-4.8,6.8-7.8,9.9c-12.9,13.7-31.3,22.9-51.7,25.9c-9.5,1.4-18.4,1.2-26.7-0.6c-8.8-1.9-15.9-6.1-23.5-10.6l-0.5-0.3
					c-0.3-0.2-0.6-0.2-0.9-0.1C48.5,89.8,48.5,89.8,48.4,89.9z"/>
			</g>
			<g>
				<path class="st0" d="M48.2,82.9c7.7,5.1,14.9,9.5,24,11.6c8.9,2,18,2.1,27,0.7c19.6-3,38.2-12.2,51.5-27.8
					c2.8-3.2,5.2-6.7,7.4-10.3c1-1.6,5.5-8.1,6.4-2.6c0.6,3.7-3.7,8.9-5.6,11.7c-2.9,4.2-6.3,8.1-10,11.7
					c-14.2,13.5-32.8,21.1-51.7,23.3c-10.4,1.2-21.3,0.5-31.3-3.1c-5-1.8-9.7-4.2-14-7.3c-1.8-1.3-3.7-2.7-5-4.5
					C45.7,84.8,45.5,81.2,48.2,82.9z"/>
				<path class="st1" d="M136.9,87.8c-11.5,7.3-25.2,12.2-39.8,13.9c-11.2,1.3-22.1,0.2-31.5-3.1c-5.2-1.8-10-4.3-14.2-7.4L51.1,91
					c-1.7-1.2-3.6-2.6-4.9-4.4c-0.7-1-1.2-3.2-0.3-4.3c0.3-0.4,1.1-0.9,2.6,0l0,0c7.3,4.9,14.7,9.4,23.8,11.5
					c8.2,1.9,17.2,2.1,26.8,0.7c20.4-3.1,38.6-12.9,51.1-27.5c2.4-2.8,4.8-6.1,7.4-10.3c0.6-0.9,3.6-5.5,5.8-5
					c0.9,0.2,1.5,1.1,1.7,2.6c0.6,3.5-2.7,8-4.8,10.9c-0.3,0.5-0.6,0.9-0.9,1.3c-2.9,4.2-6.3,8.2-10.1,11.8
					C145.5,81.8,141.4,85,136.9,87.8z M46.9,83.1C46.8,83.1,46.8,83.2,46.9,83.1c-0.4,0.4-0.2,1.9,0.3,2.7c1.2,1.6,2.9,2.9,4.6,4.1
					l0.3,0.2c4.1,3,8.8,5.5,13.9,7.3c9.3,3.3,20,4.3,31,3c19.9-2.3,38.2-10.6,51.4-23.1c3.7-3.5,7.1-7.4,9.9-11.6
					c0.3-0.4,0.6-0.8,0.9-1.3c2-2.8,5.1-7,4.6-9.9c-0.2-0.9-0.4-1.5-0.8-1.6c-0.9-0.2-3.1,2.2-4.5,4.5c-2.6,4.2-5,7.5-7.5,10.4
					c-12.7,14.9-31.1,24.8-51.8,28C89.6,97.3,80.4,97,72,95.1c-9.3-2.1-16.7-6.7-24.2-11.7C47.5,83.2,47.1,83,46.9,83.1z"/>
			</g>
			<g>
				<path class="st0" d="M46.1,74.7c7.7,6.1,15.1,11.1,24.5,13.6c9.1,2.4,18.6,2.6,27.9,1.1c19.6-3.1,37.9-12.8,50.7-28.9
					c2.6-3.3,4.8-6.9,7-10.5c1-1.6,4.6-6.8,5.8-2.2c0.8,3.1-2.5,7.6-4,10c-3,4.8-6.5,9.3-10.4,13.3C133.4,85.6,114,93.8,94.4,95.6
					c-10.6,1-21.6-0.3-31.5-4.4c-4.9-2.1-9.6-4.8-13.7-8.4c-1.7-1.4-4.8-3.7-5.4-5.9C43.2,75.4,44.4,73.5,46.1,74.7z"/>
				<path class="st1" d="M133.9,83c-11.5,7.3-25.1,11.9-39.5,13.3c-11.4,1-22.4-0.5-31.8-4.5c-5.2-2.2-9.9-5-13.9-8.5
					c-0.2-0.2-0.5-0.4-0.8-0.7c-1.8-1.4-4.2-3.4-4.8-5.5c-0.3-1.2,0-2.4,0.8-3.1c0.7-0.5,1.6-0.5,2.5,0.1l0,0
					c8,6.4,15.3,11.1,24.3,13.5c8.6,2.3,17.9,2.7,27.7,1.1c20.4-3.2,38.2-13.4,50.3-28.7c2.3-2.9,4.1-5.9,6.1-9l0.9-1.5
					c1.1-1.8,3.2-4.7,5-4.4c0.9,0.1,1.5,0.9,1.9,2.3c0.8,2.9-1.7,6.9-3.4,9.5c-0.2,0.4-0.5,0.7-0.7,1c-3,4.8-6.5,9.3-10.5,13.4
					C143.8,75.9,139.1,79.7,133.9,83z M44.7,75.1C44.7,75.1,44.7,75.1,44.7,75.1c-0.4,0.3-0.6,1-0.4,1.7c0.5,1.7,2.8,3.6,4.4,4.9
					c0.3,0.2,0.6,0.5,0.8,0.7c3.9,3.3,8.5,6.1,13.6,8.3c9.3,3.9,20.1,5.4,31.2,4.4c20.5-1.9,39.3-10.5,52.8-24.3
					c3.9-4,7.4-8.4,10.3-13.2c0.2-0.3,0.4-0.7,0.7-1.1c1.5-2.4,3.9-6.1,3.3-8.5c-0.1-0.5-0.4-1.3-0.9-1.4c-0.8-0.1-2.4,1.4-3.8,3.8
					l-0.9,1.5c-1.9,3.1-3.8,6.2-6.1,9.1c-12.2,15.5-30.4,25.8-51,29.1c-10,1.6-19.4,1.2-28.2-1.1c-9.2-2.5-16.6-7.3-24.7-13.7
					C45.3,74.9,45,74.9,44.7,75.1z"/>
			</g>
			<g>
				<path class="st0" d="M45.8,68.8c4.1,2.8,7.7,6.1,12.1,8.5c4.2,2.4,8.7,4.2,13.4,5.4c9.6,2.5,19.8,2.1,29.4,0.1
					c14-2.9,27.1-9.3,37.6-19.5c3.7-3.6,7.1-7.7,10.1-12.1c2.4-3.5,4-8.3,6.9-11.3c2.2-2.2,3.8-0.4,3.6,2.2
					c-0.5,4.7-4.1,9.7-6.6,13.5c-12.2,18.1-31.3,29.1-51.9,33c-10.9,2.1-22.3,2-33-1.5c-5.3-1.7-10.4-4.3-15-7.7
					c-2.4-1.7-4.7-3.6-6.7-5.8c-0.7-0.7-2.3-2.1-2.3-3.3C43.3,69.1,44.7,68,45.8,68.8z"/>
				<path class="st1" d="M130.6,77.5c-8.9,5.7-19.1,9.7-30.1,11.7c-12.1,2.3-23.2,1.8-33.2-1.5c-5.5-1.8-10.6-4.4-15.2-7.7
					c-2.8-2-5-3.9-6.8-5.9c-0.1-0.1-0.3-0.3-0.4-0.4c-0.9-0.9-2.1-2.1-2.1-3.3c0-0.9,0.5-1.8,1.2-2.2c0.7-0.4,1.5-0.4,2.2,0.1l0,0
					c1.6,1.1,3.1,2.3,4.6,3.4c2.3,1.8,4.8,3.6,7.4,5.1c4.2,2.4,8.6,4.2,13.2,5.3c8.8,2.3,18.6,2.3,29.2,0.1
					c14.5-3,27.4-9.7,37.3-19.4c3.6-3.5,7-7.6,10-12c0.9-1.3,1.7-2.8,2.5-4.4c1.3-2.5,2.7-5.1,4.5-7c1.5-1.5,2.6-1.2,3.2-0.9
					c1,0.5,1.6,2,1.4,3.7c-0.4,4.6-3.6,9.2-6.1,12.9l-0.6,0.9C147,64.6,139.5,71.8,130.6,77.5z M44.5,69.3C44.2,69.5,44,70,44,70.4
					c0,0.7,1.1,1.8,1.7,2.4c0.2,0.2,0.3,0.3,0.4,0.4c1.8,1.9,4,3.7,6.7,5.7c4.5,3.3,9.5,5.8,14.9,7.6c9.8,3.2,20.8,3.7,32.7,1.5
					c21.7-4.1,40-15.7,51.5-32.7l0.6-0.9c2.5-3.6,5.5-8.1,5.9-12.3c0.1-1.1-0.2-2.1-0.8-2.4c-0.5-0.2-1.1,0-1.8,0.7
					c-1.7,1.8-3.1,4.3-4.3,6.7c-0.8,1.5-1.6,3.1-2.5,4.5c-3,4.5-6.5,8.6-10.1,12.2c-10.1,9.8-23.2,16.6-37.9,19.7
					c-10.7,2.2-20.7,2.2-29.7-0.1c-4.7-1.2-9.3-3-13.5-5.5c-2.7-1.5-5.1-3.4-7.5-5.2c-1.5-1.1-3-2.3-4.6-3.4l0,0
					C45.1,69.1,44.8,69.2,44.5,69.3C44.6,69.3,44.5,69.3,44.5,69.3z"/>
			</g>
		</g>
	</g>
</g>
</svg>
