<?xml version="1.0" encoding="utf-8"?>
<!-- Generator: Adobe Illustrator 24.0.1, SVG Export Plug-In . SVG Version: 6.00 Build 0)  -->
<svg version="1.1" xmlns="http://www.w3.org/2000/svg" xmlns:xlink="http://www.w3.org/1999/xlink" x="0px" y="0px"
	 viewBox="0 0 170 200" style="enable-background:new 0 0 170 200;" xml:space="preserve">
<style type="text/css">
	.st0{fill:#212121;}
	.st1{fill:#1A45BA;}
	.st2{fill:#2360CC;}
	.st3{fill:#E8A854;}
	.st4{fill:#2B2B2A;}
	.st5{fill:#FFFFFF;}
	.st6{fill:#DF5030;}
	.st7{fill:#CB8F38;}
</style>
<g id="BACKGROUND">
</g>
<g id="OBJECT">
	<g>
		<polygon class="st4" points="64.95,198.39 45.41,176.65 16.87,180.8 45.94,101.3 94.03,118.89 		"/>
		<polygon class="st4" points="105.05,198.39 124.59,176.65 153.13,180.8 124.06,101.3 75.97,118.89 		"/>
	</g>
	<path class="st7" d="M88.8,10.68l13.29-5.06c4.69-1.79,10-0.06,12.74,4.14l7.78,11.91c1.43,2.19,3.62,3.78,6.15,4.47l13.73,3.72
		c4.85,1.31,8.12,5.82,7.87,10.84l-0.71,14.21c-0.13,2.62,0.71,5.19,2.35,7.23l8.92,11.08c3.15,3.91,3.15,9.49,0,13.4l-8.92,11.08
		c-1.64,2.04-2.48,4.61-2.35,7.23l0.71,14.21c0.25,5.01-3.03,9.53-7.87,10.84l-13.73,3.72c-2.53,0.68-4.72,2.27-6.15,4.47
		l-7.78,11.91c-2.75,4.2-8.05,5.93-12.74,4.14l-13.29-5.06c-2.45-0.93-5.15-0.93-7.6,0L67.9,154.2c-4.69,1.79-10,0.06-12.74-4.14
		l-7.78-11.91c-1.43-2.19-3.62-3.78-6.15-4.47l-13.73-3.72c-4.85-1.31-8.12-5.82-7.87-10.84l0.71-14.21
		c0.13-2.62-0.71-5.19-2.35-7.23L9.06,86.61c-3.15-3.91-3.15-9.49,0-13.4l8.92-11.08c1.64-2.04,2.48-4.61,2.35-7.23l-0.71-14.21
		c-0.25-5.01,3.03-9.53,7.87-10.84l13.73-3.72c2.53-0.68,4.72-2.27,6.15-4.47l7.78-11.91c2.75-4.2,8.05-5.93,12.74-4.14l13.29,5.06
		C83.65,11.62,86.35,11.62,88.8,10.68z"/>
	<path class="st3" d="M154.22,83.71L159.29,97c1.79,4.69,0.06,10-4.14,12.74l-11.91,7.78c-2.19,1.43-3.78,3.62-4.47,6.15
		l-3.72,13.73c-1.31,4.85-5.82,8.12-10.84,7.87l-14.21-0.71c-2.62-0.13-5.19,0.71-7.23,2.35l-11.08,8.92
		c-3.91,3.15-9.49,3.15-13.4,0l-11.08-8.92c-2.04-1.64-4.61-2.48-7.23-2.35l-14.21,0.71c-5.01,0.25-9.53-3.03-10.84-7.87
		l-3.72-13.73c-0.68-2.53-2.27-4.72-4.47-6.15l-11.91-7.78C10.65,107,8.92,101.7,10.71,97l5.06-13.29c0.93-2.45,0.93-5.15,0-7.6
		l-5.06-13.29c-1.79-4.69-0.06-10,4.14-12.74l11.91-7.78c2.19-1.43,3.78-3.62,4.47-6.15l3.72-13.73c1.31-4.85,5.82-8.12,10.84-7.87
		l14.21,0.71c2.62,0.13,5.19-0.71,7.23-2.35L78.3,3.97c3.91-3.15,9.49-3.15,13.4,0l11.08,8.92c2.04,1.64,4.61,2.48,7.23,2.35
		l14.21-0.71c5.01-0.25,9.53,3.03,10.84,7.87l3.72,13.73c0.68,2.53,2.27,4.72,4.47,6.15l11.91,7.78c4.2,2.75,5.93,8.05,4.14,12.74
		l-5.06,13.29C153.29,78.56,153.29,81.26,154.22,83.71z"/>
	<circle cx="85" cy="79.91" r="64.84"/>
	<circle class="st3" cx="85" cy="79.91" r="43.45"/>
	<g>
		<path class="st5" d="M43.58,46.21l1.1-1.47l2.82,2.11c0,0.59-0.11,1.19-0.33,1.8c-0.22,0.61-0.52,1.17-0.9,1.67
			c-0.54,0.72-1.18,1.26-1.92,1.6c-0.74,0.35-1.51,0.48-2.3,0.4c-0.79-0.08-1.53-0.38-2.22-0.9c-0.69-0.52-1.18-1.14-1.48-1.88
			c-0.3-0.74-0.39-1.51-0.26-2.33c0.13-0.81,0.47-1.58,1.01-2.31c0.46-0.61,0.97-1.08,1.55-1.43c0.58-0.34,1.19-0.53,1.83-0.58
			l0.18,1.75c-0.9,0.1-1.61,0.51-2.13,1.21c-0.33,0.44-0.54,0.91-0.61,1.39c-0.07,0.48-0.01,0.95,0.18,1.39
			c0.19,0.45,0.51,0.83,0.95,1.16c0.43,0.32,0.89,0.51,1.37,0.58s0.94-0.01,1.39-0.21c0.44-0.2,0.83-0.52,1.16-0.95
			c0.35-0.46,0.56-0.95,0.64-1.47L43.58,46.21z"/>
		<path class="st5" d="M52.73,40.7l-3.01,2.69l0.67,1.9l-1.54,1.37l-2.9-9.06l1.48-1.32l8.68,3.89l-1.57,1.4L52.73,40.7z
			 M51.24,39.98L48,38.42l1.19,3.4L51.24,39.98z"/>
		<path class="st5" d="M61.87,36.79l-2.67-1.23l-0.09,0.05l-1.51,0.89l1.23,2.08l-1.73,1.02l-4.42-7.48l3.24-1.91
			c0.66-0.39,1.3-0.62,1.92-0.69c0.62-0.07,1.18,0.02,1.68,0.27c0.5,0.25,0.92,0.65,1.25,1.21c0.33,0.56,0.48,1.11,0.45,1.67
			c-0.03,0.56-0.23,1.09-0.59,1.6l3.1,1.41L61.87,36.79z M58.05,31.32c-0.4-0.06-0.86,0.06-1.39,0.36l-1.41,0.83l1.54,2.61
			l1.41-0.83c0.52-0.31,0.85-0.65,0.98-1.04c0.13-0.39,0.08-0.79-0.16-1.2C58.78,31.63,58.45,31.38,58.05,31.32z"/>
		<path class="st5" d="M70.03,31.38l-3.8,1.34l-0.11,2.01l-1.94,0.68l0.78-9.48l1.87-0.66l6.54,6.91l-1.99,0.7L70.03,31.38z
			 M68.92,30.15l-2.4-2.68l-0.2,3.6L68.92,30.15z"/>
		<path class="st5" d="M81.17,22.32l1.21,8.6l-1.63,0.23l-5.03-4.62l0.74,5.22l-1.97,0.28l-1.22-8.6l1.65-0.23l5.02,4.62l-0.74-5.22
			L81.17,22.32z"/>
		<path class="st5" d="M86.82,24l-2.78-0.14l0.08-1.64l7.56,0.38l-0.08,1.63l-2.78-0.14l-0.35,7.04l-2.01-0.1L86.82,24z"/>
		<path class="st5" d="M94.23,23.07l1.98,0.36l-1.54,8.55l-1.98-0.36L94.23,23.07z M96.2,20.89l2.05,0.37l-2.53,1.36l-1.49-0.27
			L96.2,20.89z"/>
		<path class="st5" d="M103.02,32.43l-3.82-1.28l-1.32,1.52l-1.95-0.66l6.44-7l1.88,0.63l0.92,9.47l-2-0.67L103.02,32.43z
			 M102.91,30.78l-0.25-3.59l-2.36,2.71L102.91,30.78z"/>
		<path class="st5" d="M114.64,30.39l3.23,2.26c0.77,0.54,1.35,1.17,1.74,1.88c0.39,0.71,0.56,1.45,0.51,2.21
			c-0.05,0.77-0.32,1.5-0.82,2.22c-0.5,0.71-1.1,1.22-1.8,1.53c-0.7,0.31-1.45,0.4-2.25,0.28c-0.8-0.12-1.59-0.45-2.36-0.99
			l-3.23-2.26L114.64,30.39z M113.75,38.36c0.71,0.5,1.42,0.7,2.12,0.6c0.7-0.1,1.29-0.49,1.76-1.17c0.47-0.68,0.64-1.36,0.49-2.06
			c-0.15-0.69-0.58-1.29-1.29-1.79l-1.5-1.05l-3.09,4.41L113.75,38.36z"/>
		<path class="st5" d="M123.87,47.48l-1.16,1.12l-4.67-4.84l6.26-6.03l4.56,4.73l-1.16,1.12l-3.17-3.29l-1.36,1.31l2.8,2.9
			l-1.13,1.08l-2.8-2.9l-1.45,1.39L123.87,47.48z"/>
	</g>
	<g>
		<path d="M54.22,62.24h4.34v24.05h-5.44V68.58l-3.1,3l-2.55-3.89L54.22,62.24z"/>
		<path d="M71.93,61.83c6.41,0,7.92,5.72,7.92,12.44S78.34,86.7,71.93,86.7S64,80.99,64,74.27S65.52,61.83,71.93,61.83z
			 M71.93,82.78c2.17,0,2.62-3.89,2.62-8.51s-0.45-8.51-2.62-8.51s-2.62,3.89-2.62,8.51S69.76,82.78,71.93,82.78z"/>
		<path d="M89.16,61.83c6.41,0,7.92,5.72,7.92,12.44S95.56,86.7,89.16,86.7s-7.92-5.72-7.92-12.44S82.75,61.83,89.16,61.83z
			 M89.16,82.78c2.17,0,2.62-3.89,2.62-8.51s-0.45-8.51-2.62-8.51s-2.62,3.89-2.62,8.51S86.98,82.78,89.16,82.78z"/>
		<path d="M104.18,61.83c4.03,0,5.17,3.34,5.17,6.99c0,3.65-1.14,7-5.17,7s-5.17-3.34-5.17-7C99.01,65.17,100.15,61.83,104.18,61.83
			z M104.18,73.06c1.34,0,1.58-1.58,1.58-4.24c0-2.65-0.24-4.24-1.58-4.24s-1.58,1.58-1.58,4.24
			C102.59,71.48,102.83,73.06,104.18,73.06z M116.03,61.1h3.1l-10.89,26.32h-3.1L116.03,61.1z M120.03,72.72
			c4.03,0,5.17,3.34,5.17,6.99s-1.14,6.99-5.17,6.99c-4.03,0-5.17-3.34-5.17-6.99S116,72.72,120.03,72.72z M120.03,83.95
			c1.34,0,1.58-1.58,1.58-4.24c0-2.65-0.24-4.24-1.58-4.24c-1.34,0-1.58,1.58-1.58,4.24C118.44,82.36,118.68,83.95,120.03,83.95z"/>
	</g>
	<polygon points="72.6,51.79 70.68,52.8 71.04,50.66 69.49,49.14 71.64,48.83 72.6,46.88 73.57,48.83 75.72,49.14 74.16,50.66 
		74.53,52.8 	"/>
	<polygon points="85,50.28 82.41,51.64 82.9,48.75 80.8,46.71 83.7,46.29 85,43.66 86.3,46.29 89.2,46.71 87.1,48.75 87.59,51.64 	
		"/>
	<polygon class="st3" points="31.55,82.54 28.96,83.9 29.45,81.01 27.35,78.97 30.25,78.55 31.55,75.92 32.85,78.55 35.75,78.97 
		33.65,81.01 34.14,83.9 	"/>
	<polygon class="st3" points="139.11,82.54 136.51,83.9 137.01,81.01 134.91,78.97 137.81,78.55 139.11,75.92 140.4,78.55 
		143.3,78.97 141.2,81.01 141.7,83.9 	"/>
	<polygon points="97.4,51.79 95.47,52.8 95.84,50.66 94.28,49.14 96.43,48.83 97.4,46.88 98.36,48.83 100.51,49.14 98.96,50.66 
		99.32,52.8 	"/>
	<g>
		<polygon points="72.6,109.47 70.68,110.48 71.04,108.34 69.49,106.82 71.64,106.51 72.6,104.56 73.57,106.51 75.72,106.82 
			74.16,108.34 74.53,110.48 		"/>
		<polygon points="85,112.09 82.41,113.46 82.9,110.57 80.8,108.52 83.7,108.1 85,105.48 86.3,108.1 89.2,108.52 87.1,110.57 
			87.59,113.46 		"/>
		<polygon points="97.4,109.47 95.47,110.48 95.84,108.34 94.28,106.82 96.43,106.51 97.4,104.56 98.36,106.51 100.51,106.82 
			98.96,108.34 99.32,110.48 		"/>
	</g>
	<g>
		<g>
			<path d="M58.69,91.78h2.21c0.53,0,1,0.1,1.4,0.3s0.72,0.49,0.95,0.85c0.23,0.37,0.34,0.79,0.34,1.28s-0.11,0.91-0.34,1.28
				c-0.22,0.37-0.54,0.65-0.95,0.85s-0.87,0.3-1.4,0.3h-2.21V91.78z M60.85,95.72c0.49,0,0.88-0.14,1.17-0.41s0.44-0.64,0.44-1.1
				s-0.15-0.83-0.44-1.1s-0.68-0.41-1.17-0.41h-1.03v3.02H60.85z"/>
			<path d="M68.56,95.74v0.91h-3.77v-4.87h3.68v0.91h-2.56v1.06h2.26v0.88h-2.26v1.13H68.56z"/>
			<path d="M74.43,91.78l-2.11,4.87H71.2l-2.1-4.87h1.22l1.48,3.48l1.5-3.48H74.43z"/>
			<path d="M76.11,96.41c-0.41-0.22-0.72-0.52-0.95-0.9s-0.34-0.81-0.34-1.29c0-0.48,0.12-0.91,0.34-1.29s0.55-0.68,0.95-0.9
				c0.41-0.22,0.86-0.33,1.37-0.33s0.96,0.11,1.36,0.33c0.4,0.22,0.72,0.52,0.95,0.9s0.35,0.81,0.35,1.29
				c0,0.48-0.12,0.91-0.35,1.29s-0.55,0.68-0.95,0.9c-0.4,0.22-0.86,0.33-1.36,0.33S76.52,96.62,76.11,96.41z M78.26,95.57
				c0.23-0.13,0.41-0.32,0.55-0.55c0.13-0.24,0.2-0.51,0.2-0.81s-0.07-0.57-0.2-0.81c-0.13-0.24-0.31-0.42-0.55-0.55
				c-0.23-0.13-0.49-0.2-0.78-0.2s-0.55,0.07-0.78,0.2c-0.23,0.13-0.41,0.32-0.55,0.55c-0.13,0.24-0.2,0.51-0.2,0.81
				s0.07,0.57,0.2,0.81c0.13,0.24,0.31,0.42,0.55,0.55c0.23,0.13,0.49,0.2,0.78,0.2S78.03,95.71,78.26,95.57z"/>
			<path d="M81.35,91.78h1.13v3.95h2.44v0.92h-3.57V91.78z"/>
			<path d="M86.37,96.15c-0.39-0.39-0.58-0.94-0.58-1.65v-2.73h1.13v2.69c0,0.87,0.36,1.31,1.09,1.31c0.35,0,0.62-0.11,0.81-0.32
				c0.19-0.21,0.28-0.54,0.28-0.99v-2.69h1.11v2.73c0,0.71-0.19,1.26-0.58,1.65c-0.39,0.38-0.93,0.58-1.63,0.58
				C87.3,96.73,86.76,96.54,86.37,96.15z"/>
			<path d="M92.65,96.41c-0.4-0.22-0.72-0.51-0.95-0.9c-0.23-0.38-0.34-0.82-0.34-1.3s0.12-0.92,0.34-1.3s0.54-0.68,0.95-0.9
				s0.85-0.32,1.35-0.32c0.42,0,0.8,0.07,1.14,0.22c0.34,0.15,0.63,0.36,0.86,0.64l-0.72,0.67c-0.33-0.38-0.74-0.57-1.22-0.57
				c-0.3,0-0.57,0.07-0.81,0.2c-0.24,0.13-0.42,0.32-0.55,0.55c-0.13,0.24-0.2,0.51-0.2,0.81s0.07,0.57,0.2,0.81
				c0.13,0.24,0.32,0.42,0.55,0.55c0.24,0.13,0.51,0.2,0.81,0.2c0.49,0,0.9-0.19,1.22-0.58l0.72,0.67c-0.23,0.28-0.52,0.5-0.86,0.65
				s-0.73,0.22-1.15,0.22C93.5,96.73,93.05,96.62,92.65,96.41z"/>
			<path d="M97.12,91.78h1.13v4.87h-1.13V91.78z"/>
			<path d="M100.74,96.41c-0.41-0.22-0.72-0.52-0.95-0.9s-0.34-0.81-0.34-1.29c0-0.48,0.12-0.91,0.34-1.29s0.55-0.68,0.95-0.9
				c0.41-0.22,0.86-0.33,1.37-0.33s0.96,0.11,1.36,0.33c0.4,0.22,0.72,0.52,0.95,0.9s0.35,0.81,0.35,1.29
				c0,0.48-0.12,0.91-0.35,1.29s-0.55,0.68-0.95,0.9c-0.4,0.22-0.86,0.33-1.36,0.33S101.15,96.62,100.74,96.41z M102.89,95.57
				c0.23-0.13,0.41-0.32,0.55-0.55c0.13-0.24,0.2-0.51,0.2-0.81s-0.07-0.57-0.2-0.81c-0.13-0.24-0.31-0.42-0.55-0.55
				c-0.23-0.13-0.49-0.2-0.78-0.2s-0.55,0.07-0.78,0.2c-0.23,0.13-0.41,0.32-0.55,0.55c-0.13,0.24-0.2,0.51-0.2,0.81
				s0.07,0.57,0.2,0.81c0.13,0.24,0.31,0.42,0.55,0.55c0.23,0.13,0.49,0.2,0.78,0.2S102.66,95.71,102.89,95.57z M102.42,90.38h1.17
				l-1.26,1h-0.85L102.42,90.38z"/>
			<path d="M110.44,91.78v4.87h-0.93l-2.43-2.96v2.96h-1.11v-4.87h0.93l2.42,2.96v-2.96H110.44z"/>
		</g>
	</g>
	<g>
		<g>
			<path class="st5" d="M47.1,113.3c-0.11,0.02-0.19,0.02-0.26,0c-0.07-0.03-0.13-0.07-0.19-0.14c-0.05-0.07-0.09-0.17-0.1-0.3
				s-0.04-0.28-0.06-0.45c-0.03-0.17-0.08-0.35-0.15-0.55c-0.07-0.2-0.19-0.41-0.36-0.62c-0.15-0.19-0.31-0.34-0.47-0.45
				c-0.16-0.1-0.32-0.17-0.48-0.21c-0.16-0.03-0.32-0.03-0.47,0.02c-0.15,0.04-0.3,0.12-0.44,0.23c-0.18,0.14-0.28,0.3-0.32,0.49
				c-0.04,0.19-0.04,0.4,0.01,0.63c0.05,0.23,0.12,0.47,0.22,0.73c0.1,0.26,0.2,0.52,0.29,0.8c0.1,0.27,0.18,0.55,0.25,0.84
				c0.07,0.28,0.09,0.57,0.07,0.85c-0.02,0.28-0.1,0.56-0.24,0.83c-0.14,0.27-0.36,0.53-0.67,0.77c-0.34,0.27-0.7,0.46-1.08,0.58
				c-0.39,0.12-0.78,0.15-1.17,0.11c-0.4-0.05-0.78-0.18-1.16-0.4c-0.38-0.22-0.73-0.54-1.06-0.95c-0.19-0.24-0.35-0.49-0.49-0.76
				c-0.14-0.27-0.25-0.54-0.33-0.82c-0.08-0.28-0.14-0.56-0.16-0.84c-0.03-0.28-0.02-0.55,0.01-0.81l0.99-0.13
				c0.08,0,0.16,0.01,0.23,0.04c0.07,0.03,0.14,0.07,0.19,0.14c0.07,0.09,0.11,0.21,0.12,0.36c0.01,0.16,0.02,0.34,0.05,0.54
				c0.02,0.2,0.07,0.43,0.15,0.67s0.22,0.49,0.42,0.75c0.32,0.4,0.65,0.63,1.01,0.7c0.36,0.07,0.72-0.04,1.07-0.32
				c0.2-0.16,0.32-0.33,0.36-0.53c0.05-0.2,0.05-0.41,0-0.64c-0.04-0.23-0.12-0.47-0.23-0.72c-0.11-0.25-0.21-0.51-0.31-0.78
				c-0.1-0.27-0.19-0.54-0.25-0.83c-0.07-0.28-0.09-0.57-0.06-0.85c0.03-0.29,0.12-0.57,0.27-0.85c0.15-0.28,0.4-0.56,0.74-0.83
				c0.27-0.22,0.58-0.37,0.93-0.47c0.34-0.1,0.7-0.12,1.06-0.07c0.37,0.05,0.73,0.18,1.09,0.39c0.36,0.21,0.7,0.51,1.01,0.9
				c0.35,0.44,0.6,0.9,0.76,1.38c0.16,0.48,0.22,0.95,0.18,1.41L47.1,113.3z"/>
			<path class="st5" d="M49.66,126.45l-1.02-0.91c-0.12-0.1-0.18-0.22-0.21-0.34c-0.02-0.12-0.01-0.24,0.03-0.36l0.76-1.93
				l-2.95-2.63l-1.83,0.98c-0.09,0.05-0.21,0.07-0.34,0.07c-0.13-0.01-0.26-0.06-0.37-0.16l-1.03-0.92l9.15-4.62l1.35,1.21
				L49.66,126.45z M47.45,119.65l2.27,2.02l1.25-3.14c0.06-0.14,0.12-0.3,0.2-0.49c0.08-0.19,0.17-0.38,0.27-0.59
				c-0.2,0.13-0.38,0.24-0.55,0.35c-0.17,0.1-0.33,0.19-0.47,0.26L47.45,119.65z"/>
			<path class="st5" d="M61.83,122.91l-0.79,1.23l-2.42-1.55l-4.36,6.8l-1.49-0.96l4.36-6.8l-2.43-1.55l0.79-1.23L61.83,122.91z"/>
			<path class="st5" d="M60.84,132.9l-1.61-0.76l4.05-8.64l1.61,0.76L60.84,132.9z"/>
			<path class="st5" d="M71.33,128.53c-0.08,0.08-0.15,0.12-0.22,0.14c-0.07,0.02-0.15,0.01-0.23-0.02
				c-0.08-0.03-0.17-0.09-0.25-0.19c-0.08-0.1-0.18-0.21-0.3-0.34c-0.12-0.13-0.26-0.25-0.42-0.38c-0.17-0.13-0.38-0.24-0.64-0.32
				c-0.23-0.08-0.45-0.12-0.64-0.12c-0.19,0-0.36,0.03-0.52,0.09c-0.15,0.06-0.28,0.15-0.39,0.27c-0.11,0.12-0.19,0.26-0.24,0.43
				c-0.07,0.21-0.07,0.41,0,0.59c0.07,0.18,0.19,0.36,0.35,0.52c0.16,0.17,0.35,0.33,0.58,0.49c0.22,0.16,0.45,0.33,0.68,0.51
				c0.23,0.18,0.45,0.37,0.66,0.57c0.21,0.2,0.38,0.43,0.52,0.68c0.13,0.25,0.22,0.52,0.25,0.82s-0.02,0.64-0.14,1.02
				c-0.14,0.41-0.34,0.77-0.6,1.08c-0.26,0.31-0.57,0.55-0.93,0.72c-0.36,0.17-0.76,0.27-1.2,0.29c-0.44,0.02-0.91-0.05-1.41-0.22
				c-0.29-0.1-0.56-0.22-0.82-0.37c-0.26-0.15-0.5-0.32-0.72-0.51c-0.22-0.19-0.42-0.4-0.59-0.62c-0.17-0.22-0.32-0.45-0.43-0.69
				l0.76-0.64c0.07-0.04,0.14-0.07,0.22-0.09c0.08-0.02,0.16-0.01,0.24,0.01c0.1,0.04,0.2,0.12,0.3,0.24
				c0.09,0.13,0.2,0.27,0.33,0.43c0.13,0.16,0.29,0.32,0.48,0.48c0.19,0.16,0.45,0.29,0.76,0.4c0.48,0.16,0.89,0.17,1.23,0.04
				c0.34-0.14,0.58-0.42,0.72-0.84c0.08-0.24,0.09-0.45,0.02-0.64c-0.07-0.19-0.18-0.37-0.34-0.54c-0.16-0.17-0.36-0.33-0.58-0.48
				c-0.23-0.16-0.46-0.32-0.68-0.49c-0.23-0.17-0.45-0.36-0.66-0.56c-0.21-0.2-0.38-0.43-0.52-0.68c-0.13-0.25-0.21-0.54-0.23-0.86
				c-0.02-0.32,0.03-0.69,0.17-1.1c0.11-0.33,0.29-0.63,0.52-0.9c0.24-0.27,0.52-0.48,0.86-0.64c0.33-0.16,0.71-0.25,1.13-0.27
				c0.42-0.02,0.86,0.05,1.33,0.21c0.53,0.18,1,0.43,1.39,0.75c0.39,0.32,0.7,0.68,0.91,1.09L71.33,128.53z"/>
			<path class="st5" d="M79.83,128.46l-0.24,1.39l-4.16-0.73l-0.49,2.78l3.51,0.62l-0.24,1.4l-3.51-0.62l-0.67,3.83l-1.76-0.31
				l1.65-9.39L79.83,128.46z"/>
			<path class="st5" d="M88.55,138.23l-1.37-0.03c-0.15,0-0.28-0.04-0.38-0.12c-0.1-0.08-0.17-0.18-0.21-0.29l-0.68-1.96l-3.95-0.07
				l-0.75,1.93c-0.04,0.1-0.11,0.19-0.21,0.27c-0.1,0.08-0.23,0.12-0.38,0.12l-1.38-0.03l3.92-9.47l1.81,0.03L88.55,138.23z
				 M82.45,134.52l3.04,0.06l-1.1-3.19c-0.05-0.14-0.1-0.31-0.17-0.5c-0.06-0.19-0.12-0.4-0.18-0.63c-0.06,0.22-0.13,0.43-0.19,0.62
				c-0.06,0.19-0.13,0.36-0.18,0.5L82.45,134.52z"/>
			<path class="st5" d="M97.01,134.68c0.1-0.01,0.19,0.01,0.27,0.07l0.81,0.64c-0.3,0.54-0.72,0.97-1.23,1.32
				c-0.52,0.34-1.17,0.58-1.95,0.7c-0.7,0.11-1.35,0.1-1.94-0.05c-0.6-0.15-1.13-0.4-1.59-0.76c-0.47-0.36-0.85-0.82-1.16-1.37
				c-0.31-0.56-0.52-1.18-0.63-1.88c-0.12-0.71-0.1-1.37,0.04-2c0.14-0.63,0.38-1.19,0.74-1.68c0.36-0.5,0.81-0.91,1.37-1.24
				c0.55-0.33,1.19-0.56,1.9-0.67c0.7-0.11,1.33-0.1,1.89,0.04c0.56,0.14,1.06,0.36,1.49,0.67l-0.45,0.91
				c-0.03,0.06-0.06,0.11-0.11,0.16c-0.05,0.05-0.12,0.08-0.22,0.09c-0.1,0.02-0.21-0.01-0.32-0.07c-0.12-0.06-0.26-0.12-0.44-0.19
				c-0.17-0.06-0.39-0.12-0.65-0.15c-0.26-0.04-0.58-0.03-0.95,0.03c-0.44,0.07-0.84,0.22-1.18,0.43c-0.35,0.21-0.63,0.49-0.85,0.82
				c-0.22,0.33-0.37,0.71-0.45,1.15c-0.08,0.43-0.08,0.91,0,1.42c0.09,0.53,0.24,0.99,0.45,1.37c0.22,0.39,0.48,0.7,0.78,0.94
				c0.3,0.24,0.64,0.41,1.01,0.5c0.37,0.09,0.76,0.11,1.16,0.04c0.24-0.04,0.45-0.09,0.64-0.14c0.19-0.06,0.36-0.13,0.51-0.21
				c0.15-0.08,0.3-0.18,0.43-0.29c0.13-0.11,0.26-0.25,0.38-0.4c0.04-0.05,0.08-0.09,0.12-0.12
				C96.9,134.71,96.95,134.69,97.01,134.68z"/>
			<path class="st5" d="M106.7,131.61c0.09-0.03,0.18-0.03,0.27,0.02l0.91,0.48c-0.2,0.58-0.53,1.09-0.97,1.52
				c-0.45,0.43-1.04,0.78-1.79,1.04c-0.67,0.24-1.31,0.34-1.92,0.3c-0.61-0.04-1.18-0.19-1.7-0.46c-0.52-0.27-0.98-0.65-1.38-1.15
				c-0.4-0.49-0.72-1.07-0.96-1.74c-0.24-0.68-0.35-1.33-0.32-1.97c0.02-0.64,0.17-1.24,0.43-1.79c0.26-0.55,0.63-1.04,1.12-1.47
				c0.48-0.43,1.07-0.76,1.75-1.01c0.67-0.24,1.29-0.34,1.86-0.3c0.57,0.04,1.1,0.17,1.59,0.39l-0.28,0.98
				c-0.02,0.06-0.04,0.12-0.08,0.18c-0.04,0.06-0.1,0.1-0.19,0.13c-0.1,0.03-0.21,0.03-0.33-0.01c-0.13-0.04-0.28-0.08-0.46-0.11
				c-0.19-0.03-0.41-0.04-0.67-0.04c-0.26,0.01-0.57,0.08-0.93,0.21c-0.42,0.15-0.79,0.36-1.09,0.64c-0.3,0.27-0.53,0.59-0.69,0.96
				c-0.16,0.36-0.24,0.77-0.24,1.21c0,0.44,0.08,0.91,0.26,1.4c0.18,0.51,0.41,0.93,0.69,1.27c0.28,0.34,0.59,0.6,0.93,0.79
				c0.34,0.18,0.7,0.29,1.08,0.31c0.38,0.02,0.76-0.03,1.14-0.17c0.23-0.08,0.43-0.17,0.61-0.26c0.17-0.09,0.33-0.19,0.47-0.3
				c0.14-0.11,0.26-0.23,0.37-0.36c0.11-0.13,0.21-0.29,0.3-0.46c0.03-0.05,0.06-0.1,0.1-0.14
				C106.6,131.66,106.65,131.63,106.7,131.61z"/>
			<path class="st5" d="M112.6,131.2l-1.58,0.82l-4.38-8.47l1.58-0.82L112.6,131.2z"/>
			<path class="st5" d="M120.46,120.24c0.41,0.56,0.7,1.16,0.86,1.78c0.16,0.62,0.2,1.23,0.12,1.83c-0.09,0.6-0.3,1.17-0.63,1.72
				c-0.33,0.55-0.8,1.03-1.38,1.46c-0.58,0.42-1.19,0.71-1.81,0.87c-0.62,0.15-1.24,0.18-1.84,0.08c-0.6-0.1-1.17-0.32-1.71-0.67
				c-0.54-0.34-1.01-0.8-1.43-1.36s-0.7-1.16-0.86-1.78c-0.16-0.62-0.2-1.23-0.12-1.83c0.09-0.6,0.3-1.18,0.64-1.72
				c0.34-0.55,0.8-1.04,1.38-1.46c0.58-0.43,1.19-0.71,1.81-0.86c0.62-0.15,1.24-0.17,1.83-0.07c0.6,0.1,1.16,0.32,1.7,0.67
				C119.57,119.22,120.05,119.68,120.46,120.24z M114.47,115.89l-0.74,2.3c-0.02,0.06-0.04,0.11-0.06,0.15
				c-0.02,0.04-0.04,0.08-0.07,0.12c-0.03,0.03-0.06,0.07-0.09,0.1c-0.03,0.03-0.08,0.06-0.13,0.1l-1.03,0.75l0.26-1.84
				c0.01-0.07,0.03-0.14,0.04-0.19c0.02-0.06,0.04-0.11,0.07-0.15c0.03-0.04,0.06-0.09,0.11-0.13s0.1-0.09,0.18-0.14L114.47,115.89z
				 M118.99,121.31c-0.31-0.42-0.64-0.76-1-1.01c-0.36-0.25-0.73-0.42-1.11-0.5c-0.38-0.08-0.77-0.07-1.16,0.02
				c-0.39,0.09-0.77,0.28-1.15,0.55c-0.38,0.27-0.67,0.58-0.88,0.93c-0.21,0.35-0.34,0.71-0.38,1.1c-0.04,0.39,0.01,0.79,0.14,1.21
				c0.13,0.42,0.35,0.84,0.66,1.26c0.31,0.42,0.64,0.76,1,1.01c0.36,0.25,0.73,0.42,1.11,0.5c0.38,0.08,0.77,0.07,1.16-0.03
				c0.39-0.1,0.78-0.28,1.15-0.56c0.38-0.27,0.67-0.58,0.88-0.93c0.21-0.34,0.33-0.71,0.37-1.09c0.04-0.39-0.01-0.79-0.14-1.2
				C119.52,122.16,119.3,121.74,118.99,121.31z"/>
			<path class="st5" d="M119.34,114.6c0.04-0.03,0.08-0.06,0.12-0.08c0.04-0.02,0.09-0.03,0.15-0.03c0.05,0,0.12,0,0.2,0l8.09,0.53
				c-0.13-0.09-0.25-0.18-0.36-0.27c-0.12-0.09-0.22-0.18-0.31-0.27l-4.32-3.87l1.04-1.16l7.1,6.36l-0.61,0.68
				c-0.09,0.1-0.19,0.18-0.28,0.22c-0.09,0.04-0.21,0.05-0.36,0.04l-8.06-0.52c0.11,0.08,0.22,0.17,0.33,0.26
				c0.11,0.09,0.2,0.17,0.29,0.25l4.36,3.91l-1.04,1.16l-7.1-6.36l0.62-0.69C119.26,114.68,119.3,114.63,119.34,114.6z"/>
		</g>
	</g>
</g>
</svg>
