<?xml version="1.0" encoding="utf-8"?>
<!-- Generator: Adobe Illustrator 24.0.1, SVG Export Plug-In . SVG Version: 6.00 Build 0)  -->
<svg version="1.1" id="Capa_1" xmlns="http://www.w3.org/2000/svg" xmlns:xlink="http://www.w3.org/1999/xlink" x="0px" y="0px"
	 viewBox="0 0 200 190" style="enable-background:new 0 0 200 190;" xml:space="preserve">
<style type="text/css">
	.st0{opacity:0.65;fill:#108085;}
	.st1{fill:#E08E1F;}
	.st2{fill:#FFFFFF;}
	.st3{fill:#DE5030;}
	.st4{fill:#4C3522;}
	.st5{fill:#C07C16;}
	.st6{fill:#EDE0A4;}
	.st7{fill:#592F11;}
	.st8{fill:#606060;}
	.st9{fill:#108085;}
	.st10{fill:#ADA380;}
	.st11{fill:#4F4139;}
</style>
<g>
	<path class="st1" d="M166.31,153.03c-1.45,18.47-17.23,31.63-35.07,28.36c-6.17-1.13-12.23-2.87-18.29-4.5
		c-10.01-2.7-19.94-3.14-29.97,0c-4.63,1.45-9.37,2.57-14.11,3.65c-11.34,2.57-21.88,1.78-30.04-7.84
		c-8.06-9.49-9.11-20.4-4.55-31.39c2.65-6.39,6.96-12.25,11.28-17.77c7.86-10.04,16.26-19.64,24.46-29.42
		c2.87-3.42,5.54-7.05,8.71-10.16c11.14-10.9,29.54-11.54,39.87,0.07c13.97,15.69,27.04,32.25,39.59,49.11
		C162.33,138.7,163.68,146.34,166.31,153.03z"/>
	<path class="st1" d="M153.71,35.16c0.09,11.03-3.31,20.8-11.33,28.54c-13.05,12.6-29.94,8.06-34.83-9.45
		c-3.61-12.93-1.08-24.99,7.04-35.61c5.9-7.73,13.52-12.36,23.74-9.82c7.77,1.93,14.25,10.93,15.35,20.87
		C153.88,31.48,153.71,33.33,153.71,35.16z"/>
	<path class="st1" d="M44.89,33.59c0.72-2.72,1.37-8.06,3.5-12.73c6.12-13.41,19.87-16.11,31.1-6.54
		c11.93,10.17,15.43,32.37,7.2,45.74c-6.53,10.6-18.38,12.98-28.19,5.37C48.99,58.07,45.49,47.78,44.89,33.59z"/>
	<path class="st1" d="M194.89,77.77c-0.96,11.99-6.24,22.86-18.87,28.82c-12.11,5.71-23.48-0.01-26.65-12.96
		c-3.48-14.19,6.92-32.67,20.85-37.07C183.62,52.33,194.8,61.3,194.89,77.77z"/>
	<path class="st1" d="M5.11,75.81c0.49-2.08,0.87-5.55,2.11-8.69c4.4-11.22,15.34-15.02,25.88-9.24
		C45.48,64.69,52.33,81.35,48.36,95c-3.76,12.92-16.49,17.71-27.92,10.35C10.25,98.78,5.86,88.97,5.11,75.81z"/>
</g>
</svg>
