<?xml version="1.0" encoding="utf-8"?>
<!-- Generator: Adobe Illustrator 25.2.0, SVG Export Plug-In . SVG Version: 6.00 Build 0)  -->
<svg version="1.1" id="Capa_1" xmlns="http://www.w3.org/2000/svg" xmlns:xlink="http://www.w3.org/1999/xlink" x="0px" y="0px"
	 viewBox="0 0 200 190" style="enable-background:new 0 0 200 190;" xml:space="preserve">
<style type="text/css">
	.st0{fill:#EF5030;}
</style>
<g>
	<path class="st0" d="M166.3,153c-1.4,18.5-17.2,31.6-35.1,28.4c-6.2-1.1-12.2-2.9-18.3-4.5c-10-2.7-19.9-3.1-30,0
		c-4.6,1.4-9.4,2.6-14.1,3.6c-11.3,2.6-21.9,1.8-30-7.8c-8.1-9.5-9.1-20.4-4.5-31.4c2.7-6.4,7-12.2,11.3-17.8
		c7.9-10,16.3-19.6,24.5-29.4c2.9-3.4,5.5-7.1,8.7-10.2c11.1-10.9,29.5-11.5,39.9,0.1c14,15.7,27,32.2,39.6,49.1
		C162.3,138.7,163.7,146.3,166.3,153z"/>
	<path class="st0" d="M153.7,35.2c0.1,11-3.3,20.8-11.3,28.5c-13.1,12.6-29.9,8.1-34.8-9.5c-3.6-12.9-1.1-25,7-35.6
		c5.9-7.7,13.5-12.4,23.7-9.8c7.8,1.9,14.2,10.9,15.4,20.9C153.9,31.5,153.7,33.3,153.7,35.2z"/>
	<path class="st0" d="M44.9,33.6c0.7-2.7,1.4-8.1,3.5-12.7c6.1-13.4,19.9-16.1,31.1-6.5c11.9,10.2,15.4,32.4,7.2,45.7
		c-6.5,10.6-18.4,13-28.2,5.4C49,58.1,45.5,47.8,44.9,33.6z"/>
	<path class="st0" d="M194.9,77.8c-1,12-6.2,22.9-18.9,28.8c-12.1,5.7-23.5,0-26.6-13c-3.5-14.2,6.9-32.7,20.9-37.1
		C183.6,52.3,194.8,61.3,194.9,77.8z"/>
	<path class="st0" d="M5.1,75.8c0.5-2.1,0.9-5.6,2.1-8.7c4.4-11.2,15.3-15,25.9-9.2C45.5,64.7,52.3,81.3,48.4,95
		c-3.8,12.9-16.5,17.7-27.9,10.3C10.2,98.8,5.9,89,5.1,75.8z"/>
</g>
</svg>
